<?xml version="1.0" encoding="UTF-8"?>
<svg width="100" height="100" viewBox="0 0 100 100" xmlns="http://www.w3.org/2000/svg">
  <circle cx="50" cy="50" r="45" fill="#4361ee" opacity="0.1"/>
  <path d="M50 20C33.431 20 20 33.431 20 50s13.431 30 30 30 30-13.431 30-30S66.569 20 50 20zm0 5c13.807 0 25 11.193 25 25s-11.193 25-25 25-25-11.193-25-25 11.193-25 25-25zm0 5c-11.046 0-20 8.954-20 20s8.954 20 20 20 20-8.954 20-20-8.954-20-20-20zm0 5c8.284 0 15 6.716 15 15s-6.716 15-15 15-15-6.716-15-15 6.716-15 15-15z" fill="#4361ee"/>
  <circle cx="65" cy="35" r="8" fill="#7209b7"/>
  <circle cx="35" cy="65" r="8" fill="#e1306c"/>
</svg>