<svg width="22" height="22" viewBox="0 0 22 22" fill="none" xmlns="http://www.w3.org/2000/svg">
<path d="M1.83331 7.85563C1.83331 6.75913 2.27549 6.08715 3.19056 5.57791L6.95736 3.48164C8.93115 2.38321 9.91804 1.83398 11 1.83398C12.0819 1.83398 13.0688 2.38321 15.0426 3.48164L18.8094 5.57791C19.7244 6.08715 20.1666 6.75914 20.1666 7.85563C20.1666 8.15296 20.1666 8.30163 20.1342 8.42385C19.9636 9.06598 19.3817 9.16732 18.8198 9.16732H3.18015C2.61823 9.16732 2.03637 9.06597 1.86578 8.42385C1.83331 8.30163 1.83331 8.15296 1.83331 7.85563Z" stroke="#6C6C6C" stroke-width="1.5"/>
<path d="M10.9962 6.41602H11.0052" stroke="#6C6C6C" stroke-width="2" stroke-linecap="round" stroke-linejoin="round"/>
<path d="M3.66669 9.16602V16.9577M7.33335 9.16602V16.9577" stroke="#6C6C6C" stroke-width="1.5"/>
<path d="M14.6667 9.16602V16.9577M18.3334 9.16602V16.9577" stroke="#6C6C6C" stroke-width="1.5"/>
<path d="M17.4166 16.959H4.58331C3.06453 16.959 1.83331 18.1902 1.83331 19.709C1.83331 19.9621 2.03852 20.1673 2.29165 20.1673H19.7083C19.9614 20.1673 20.1666 19.9621 20.1666 19.709C20.1666 18.1902 18.9355 16.959 17.4166 16.959Z" stroke="#6C6C6C" stroke-width="1.5"/>
</svg>
