<svg width="20" height="13" viewBox="0 0 20 13" fill="none" xmlns="http://www.w3.org/2000/svg">
<path fill-rule="evenodd" clip-rule="evenodd" d="M19.094 1.78709C19.094 1.18304 18.6384 0.693359 18.0762 0.693359H17.0584C16.4963 0.693359 16.0406 1.18304 16.0406 1.78709V11.2661C16.0406 11.8701 16.4963 12.3598 17.0584 12.3598H18.0762C18.6384 12.3598 19.094 11.8701 19.094 11.2661V1.78709ZM12.0004 3.02664H13.0182C13.5804 3.02664 14.0361 3.52807 14.0361 4.14662V11.2398C14.0361 11.8584 13.5804 12.3598 13.0182 12.3598H12.0004C11.4383 12.3598 10.9826 11.8584 10.9826 11.2398V4.14662C10.9826 3.52807 11.4383 3.02664 12.0004 3.02664ZM7.86706 5.55436H6.84925C6.28712 5.55436 5.83143 6.06218 5.83143 6.6886V11.2255C5.83143 11.852 6.28712 12.3598 6.84925 12.3598H7.86706C8.42918 12.3598 8.88487 11.852 8.88487 11.2255V6.6886C8.88487 6.06218 8.42918 5.55436 7.86706 5.55436ZM2.80906 7.88766H1.79125C1.22913 7.88766 0.773438 8.38822 0.773438 9.00569V11.2418C0.773438 11.8592 1.22913 12.3598 1.79125 12.3598H2.80906C3.37118 12.3598 3.82687 11.8592 3.82687 11.2418V9.00569C3.82687 8.38822 3.37118 7.88766 2.80906 7.88766Z" fill="#0B0218"/>
</svg>
