<svg width="20" height="13" viewBox="0 0 20 13" fill="none" xmlns="http://www.w3.org/2000/svg">
<path fill-rule="evenodd" clip-rule="evenodd" d="M19.0941 1.78709C19.0941 1.18304 18.6384 0.693359 18.0763 0.693359H17.0585C16.4964 0.693359 16.0407 1.18304 16.0407 1.78709V11.2661C16.0407 11.8701 16.4964 12.3598 17.0585 12.3598H18.0763C18.6384 12.3598 19.0941 11.8701 19.0941 11.2661V1.78709ZM12.0005 3.02664H13.0183C13.5804 3.02664 14.0361 3.52807 14.0361 4.14662V11.2398C14.0361 11.8584 13.5804 12.3598 13.0183 12.3598H12.0005C11.4384 12.3598 10.9827 11.8584 10.9827 11.2398V4.14662C10.9827 3.52807 11.4384 3.02664 12.0005 3.02664ZM7.86712 5.55436H6.84931C6.28719 5.55436 5.8315 6.06218 5.8315 6.6886V11.2255C5.8315 11.852 6.28719 12.3598 6.84931 12.3598H7.86712C8.42924 12.3598 8.88493 11.852 8.88493 11.2255V6.6886C8.88493 6.06218 8.42924 5.55436 7.86712 5.55436ZM2.80912 7.88766H1.79131C1.22919 7.88766 0.773499 8.38822 0.773499 9.00569V11.2418C0.773499 11.8592 1.22919 12.3598 1.79131 12.3598H2.80912C3.37124 12.3598 3.82693 11.8592 3.82693 11.2418V9.00569C3.82693 8.38822 3.37124 7.88766 2.80912 7.88766Z" fill="#0B0218"/>
</svg>
