<svg width="20" height="13" viewBox="0 0 20 13" fill="none" xmlns="http://www.w3.org/2000/svg">
<path fill-rule="evenodd" clip-rule="evenodd" d="M19.0939 1.78709C19.0939 1.18304 18.6382 0.693359 18.0761 0.693359H17.0583C16.4962 0.693359 16.0405 1.18304 16.0405 1.78709V11.2661C16.0405 11.8701 16.4962 12.3598 17.0583 12.3598H18.0761C18.6382 12.3598 19.0939 11.8701 19.0939 11.2661V1.78709ZM12.0003 3.02664H13.0181C13.5802 3.02664 14.0359 3.52807 14.0359 4.14662V11.2398C14.0359 11.8584 13.5802 12.3598 13.0181 12.3598H12.0003C11.4382 12.3598 10.9825 11.8584 10.9825 11.2398V4.14662C10.9825 3.52807 11.4382 3.02664 12.0003 3.02664ZM7.86694 5.55436H6.84912C6.287 5.55436 5.83131 6.06218 5.83131 6.6886V11.2255C5.83131 11.852 6.287 12.3598 6.84912 12.3598H7.86694C8.42906 12.3598 8.88475 11.852 8.88475 11.2255V6.6886C8.88475 6.06218 8.42906 5.55436 7.86694 5.55436ZM2.80894 7.88766H1.79113C1.22901 7.88766 0.773315 8.38822 0.773315 9.00569V11.2418C0.773315 11.8592 1.22901 12.3598 1.79113 12.3598H2.80894C3.37106 12.3598 3.82675 11.8592 3.82675 11.2418V9.00569C3.82675 8.38822 3.37106 7.88766 2.80894 7.88766Z" fill="#0B0218"/>
</svg>
