<svg width="20" height="13" viewBox="0 0 20 13" fill="none" xmlns="http://www.w3.org/2000/svg">
<path fill-rule="evenodd" clip-rule="evenodd" d="M19.0942 1.78709C19.0942 1.18304 18.6385 0.693359 18.0764 0.693359H17.0585C16.4964 0.693359 16.0407 1.18304 16.0407 1.78709V11.2661C16.0407 11.8701 16.4964 12.3598 17.0585 12.3598H18.0764C18.6385 12.3598 19.0942 11.8701 19.0942 11.2661V1.78709ZM12.0005 3.02664H13.0184C13.5805 3.02664 14.0362 3.52807 14.0362 4.14662V11.2398C14.0362 11.8584 13.5805 12.3598 13.0184 12.3598H12.0005C11.4384 12.3598 10.9827 11.8584 10.9827 11.2398V4.14662C10.9827 3.52807 11.4384 3.02664 12.0005 3.02664ZM7.86718 5.55436H6.84937C6.28725 5.55436 5.83156 6.06218 5.83156 6.6886V11.2255C5.83156 11.852 6.28725 12.3598 6.84937 12.3598H7.86718C8.4293 12.3598 8.88499 11.852 8.88499 11.2255V6.6886C8.88499 6.06218 8.4293 5.55436 7.86718 5.55436ZM2.80918 7.88766H1.79137C1.22925 7.88766 0.77356 8.38822 0.77356 9.00569V11.2418C0.77356 11.8592 1.22925 12.3598 1.79137 12.3598H2.80918C3.3713 12.3598 3.82699 11.8592 3.82699 11.2418V9.00569C3.82699 8.38822 3.3713 7.88766 2.80918 7.88766Z" fill="black"/>
</svg>
