<svg width="32" height="33" viewBox="0 0 32 33" fill="none" xmlns="http://www.w3.org/2000/svg">
<path d="M3.33334 16.0436C3.33334 10.0725 3.33334 7.08694 5.18833 5.23194C7.04333 3.37695 10.0289 3.37695 16 3.37695C21.9711 3.37695 24.9567 3.37695 26.8117 5.23194C28.6667 7.08694 28.6667 10.0725 28.6667 16.0436C28.6667 22.0147 28.6667 25.0003 26.8117 26.8554C24.9567 28.7103 21.9711 28.7103 16 28.7103C10.0289 28.7103 7.04333 28.7103 5.18833 26.8554C3.33334 25.0003 3.33334 22.0147 3.33334 16.0436Z" fill="#F0E7FD"/>
<path d="M10.6667 18.3773C10.6667 18.3773 12.8 19.5939 13.8667 21.3773C13.8667 21.3773 17.0667 14.3773 21.3333 12.0439" stroke="#430B92" stroke-width="2" stroke-linecap="round" stroke-linejoin="round"/>
</svg>
