<svg width="32" height="33" viewBox="0 0 32 33" fill="none" xmlns="http://www.w3.org/2000/svg">
<path d="M3.33331 16.0436C3.33331 10.0725 3.33331 7.08694 5.1883 5.23194C7.0433 3.37695 10.0289 3.37695 16 3.37695C21.971 3.37695 24.9566 3.37695 26.8117 5.23194C28.6666 7.08694 28.6666 10.0725 28.6666 16.0436C28.6666 22.0147 28.6666 25.0003 26.8117 26.8554C24.9566 28.7103 21.971 28.7103 16 28.7103C10.0289 28.7103 7.0433 28.7103 5.1883 26.8554C3.33331 25.0003 3.33331 22.0147 3.33331 16.0436Z" fill="#F0E7FD"/>
<path d="M10.6667 18.3773C10.6667 18.3773 12.8 19.5939 13.8667 21.3773C13.8667 21.3773 17.0667 14.3773 21.3334 12.0439" stroke="#430B92" stroke-width="2" stroke-linecap="round" stroke-linejoin="round"/>
</svg>
