<svg width="27" height="22" viewBox="0 0 27 22" fill="none" xmlns="http://www.w3.org/2000/svg">
<path d="M11.8776 12.6688C10.7783 11.7481 10.7783 10.2542 11.8776 9.33165C12.977 8.41093 14.7607 8.41093 15.8623 9.33165C16.9616 10.2524 16.9616 11.7462 15.8623 12.6688C14.7607 13.5913 12.9781 13.5913 11.8776 12.6688" stroke="#6C6C6C" stroke-width="1.3" stroke-linecap="round" stroke-linejoin="round"/>
<path fill-rule="evenodd" clip-rule="evenodd" d="M22.6292 11.0023C22.6292 11.5204 22.4814 12.0331 22.1956 12.5053V12.5053C20.7207 14.9392 17.462 16.5046 13.8694 16.5046C10.2767 16.5046 7.01805 14.9392 5.54311 12.5053V12.5053C5.25732 12.0331 5.1095 11.5204 5.1095 11.0023C5.1095 10.4842 5.25732 9.97153 5.54311 9.49925V9.49925C7.01805 7.0654 10.2767 5.5 13.8694 5.5C17.462 5.5 20.7207 7.0654 22.1956 9.49925V9.49925C22.4814 9.97153 22.6292 10.4842 22.6292 11.0023Z" stroke="#6C6C6C" stroke-width="1.3" stroke-linecap="round" stroke-linejoin="round"/>
</svg>
