<svg width="30" height="30" viewBox="0 0 30 30" fill="none" xmlns="http://www.w3.org/2000/svg">
<rect width="29.2" height="29.2" rx="14.6" fill="white"/>
<path d="M18.2874 8.43718L19.1124 7.61219C19.7959 6.92875 20.904 6.92875 21.5874 7.61219C22.2708 8.29564 22.2708 9.40372 21.5874 10.0872L20.7624 10.9122M18.2874 8.43718L12.738 13.9866C12.3151 14.4096 12.015 14.9394 11.87 15.5197L11.2667 17.9329L13.6799 17.3296C14.2602 17.1846 14.79 16.8845 15.213 16.4616L20.7624 10.9122M18.2874 8.43718L20.7624 10.9122" stroke="#430B92" stroke-width="1.2" stroke-linejoin="round"/>
<path d="M20.4332 15.849C20.4332 18.5885 20.4332 19.9583 19.6766 20.8803C19.5381 21.049 19.3834 21.2038 19.2146 21.3423C18.2926 22.099 16.9228 22.099 14.1832 22.099H13.7666C10.6239 22.099 9.05261 22.099 8.0763 21.1226C7.1 20.1464 7.09998 18.575 7.09998 15.4323V15.0156C7.09998 12.2761 7.09998 10.9063 7.85659 9.98432C7.99512 9.81554 8.14989 9.66077 8.31868 9.52224C9.24063 8.76562 10.6104 8.76562 13.35 8.76562" stroke="#430B92" stroke-width="1.2" stroke-linecap="round" stroke-linejoin="round"/>
</svg>
