<svg width="31" height="30" viewBox="0 0 31 30" fill="none" xmlns="http://www.w3.org/2000/svg">
<rect x="0.949951" width="29.2" height="29.2" rx="14.6" fill="white"/>
<path d="M23.0499 10.0166C23.0499 11.3973 21.9307 12.5166 20.5499 12.5166C19.1692 12.5166 18.0499 11.3973 18.0499 10.0166C18.0499 8.63589 19.1692 7.5166 20.5499 7.5166C21.9307 7.5166 23.0499 8.63589 23.0499 10.0166Z" stroke="#430B92" stroke-width="1.2"/>
<path d="M13.0499 14.5996C13.0499 15.9804 11.9306 17.0996 10.5499 17.0996C9.16922 17.0996 8.04993 15.9804 8.04993 14.5996C8.04993 13.2189 9.16922 12.0996 10.5499 12.0996C11.9306 12.0996 13.0499 13.2189 13.0499 14.5996Z" stroke="#430B92" stroke-width="1.2"/>
<path d="M23.0499 19.1826C23.0499 20.5634 21.9307 21.6826 20.5499 21.6826C19.1692 21.6826 18.0499 20.5634 18.0499 19.1826C18.0499 17.8019 19.1692 16.6826 20.5499 16.6826C21.9307 16.6826 23.0499 17.8019 23.0499 19.1826Z" stroke="#430B92" stroke-width="1.2"/>
<path d="M12.8237 13.5572L18.2404 11.0576M12.8237 15.641L18.2404 18.1405" stroke="#430B92" stroke-width="1.2"/>
</svg>
