<svg width="45" height="42" viewBox="0 0 45 42" fill="none" xmlns="http://www.w3.org/2000/svg">
<rect x="0.5" y="0.5" width="43.0945" height="41" rx="20.5" fill="#F4F4F4" stroke="#F0E7FD"/>
<path fill-rule="evenodd" clip-rule="evenodd" d="M26.5851 26.5024V21.0001C26.5853 20.5136 26.3921 20.0471 26.0481 19.7031C25.7041 19.3591 25.2375 19.1659 24.751 19.166H15.5806C15.0941 19.1659 14.6275 19.3591 14.2835 19.7031C13.9395 20.0471 13.7463 20.5136 13.7465 21.0001V26.5024C13.7463 26.9889 13.9395 27.4555 14.2835 27.7995C14.6275 28.1434 15.0941 28.3366 15.5806 28.3365H24.751C25.764 28.3365 26.5851 27.5153 26.5851 26.5024Z" stroke="#A2A2A7" stroke-width="1.3" stroke-linecap="round" stroke-linejoin="round"/>
<path d="M13.7465 22.9077H26.5851" stroke="#A2A2A7" stroke-width="1.3" stroke-linecap="round" stroke-linejoin="round"/>
<path d="M16.681 19.1658L17.7907 15.0208C17.9166 14.551 18.2242 14.1506 18.6457 13.9081C19.0673 13.6655 19.568 13.6006 20.0374 13.7277L28.8961 16.1029C29.3659 16.2288 29.7662 16.5364 30.0088 16.958C30.2514 17.3795 30.3163 17.8802 30.1892 18.3497L28.7677 23.6594C28.5148 24.615 27.5476 25.1961 26.5852 24.9708" stroke="#A2A2A7" stroke-width="1.3" stroke-linecap="round" stroke-linejoin="round"/>
</svg>
