<svg width="400" height="22" viewBox="0 0 400 22" fill="none" xmlns="http://www.w3.org/2000/svg">
<circle cx="48.3731" cy="11" r="3" fill="#0B0218"/>
<circle cx="61.5075" cy="11" r="3" fill="#0B0218"/>
<circle cx="74.6418" cy="11" r="3" fill="#0B0218"/>
<circle cx="87.7761" cy="11" r="3" fill="#0B0218"/>
<circle cx="100.91" cy="11" r="3" fill="#0B0218"/>
<circle cx="114.045" cy="11" r="3" fill="#0B0218"/>
<circle cx="127.179" cy="11" r="3" fill="#0B0218"/>
<circle cx="140.313" cy="11" r="3" fill="#0B0218"/>
<path d="M384.878 12.6683C383.778 11.7476 383.778 10.2537 384.878 9.33116C385.977 8.41045 387.761 8.41045 388.862 9.33116C389.962 10.2519 389.962 11.7458 388.862 12.6683C387.761 13.5909 385.978 13.5909 384.878 12.6683" stroke="#6C6C6C" stroke-width="1.3" stroke-linecap="round" stroke-linejoin="round"/>
<path fill-rule="evenodd" clip-rule="evenodd" d="M395.629 11.0023C395.629 11.5204 395.481 12.0331 395.196 12.5053V12.5053C393.721 14.9392 390.462 16.5046 386.869 16.5046C383.277 16.5046 380.018 14.9392 378.543 12.5053V12.5053C378.257 12.0331 378.109 11.5204 378.109 11.0023C378.109 10.4842 378.257 9.97153 378.543 9.49925V9.49925C380.018 7.0654 383.277 5.5 386.869 5.5C390.462 5.5 393.721 7.0654 395.196 9.49925V9.49925C395.481 9.97153 395.629 10.4842 395.629 11.0023Z" stroke="#6C6C6C" stroke-width="1.3" stroke-linecap="round" stroke-linejoin="round"/>
<path d="M8.75623 9.16667V6.41667V6.41667C8.75623 4.39175 10.7165 2.75 13.1343 2.75V2.75C15.5521 2.75 17.5124 4.39175 17.5124 6.41667V6.41667V9.16667" stroke="#6C6C6C" stroke-width="1.3" stroke-linecap="round" stroke-linejoin="round"/>
<path fill-rule="evenodd" clip-rule="evenodd" d="M18.607 19.2493H7.6617C6.45224 19.2493 5.47264 18.4289 5.47264 17.416V10.9993C5.47264 9.98643 6.45224 9.16602 7.6617 9.16602H18.607C19.8164 9.16602 20.796 9.98643 20.796 10.9993V17.416C20.796 18.4289 19.8164 19.2493 18.607 19.2493Z" stroke="#6C6C6C" stroke-width="1.3" stroke-linecap="round" stroke-linejoin="round"/>
<path d="M9.85075 14.2467C9.84746 14.2467 9.84527 14.2486 9.84527 14.2513C9.84527 14.2541 9.84746 14.2559 9.85075 14.2559C9.85403 14.2559 9.85622 14.2541 9.85622 14.2513C9.85622 14.2486 9.85403 14.2467 9.85075 14.2467" stroke="#6C6C6C" stroke-width="1.5" stroke-linecap="round" stroke-linejoin="round"/>
<path d="M13.1398 14.2467C13.1365 14.2467 13.1343 14.2486 13.1343 14.2513C13.1343 14.2541 13.1376 14.2559 13.1398 14.2559C13.1431 14.2559 13.1453 14.2541 13.1453 14.2513C13.1453 14.2486 13.1431 14.2467 13.1398 14.2467" stroke="#6C6C6C" stroke-width="1.5" stroke-linecap="round" stroke-linejoin="round"/>
<path d="M16.4179 14.2467C16.4146 14.2467 16.4124 14.2486 16.4124 14.2513C16.4124 14.2541 16.4146 14.2559 16.4179 14.2559C16.4212 14.2559 16.4234 14.2541 16.4234 14.2513C16.4234 14.2486 16.4212 14.2467 16.4179 14.2467" stroke="#6C6C6C" stroke-width="1.5" stroke-linecap="round" stroke-linejoin="round"/>
</svg>
