<svg width="27" height="22" viewBox="0 0 27 22" fill="none" xmlns="http://www.w3.org/2000/svg">
<path d="M10.6321 5.76019L10.2966 5.00521C10.0772 4.51157 9.96748 4.26473 9.80342 4.07584C9.59781 3.83912 9.3298 3.66495 9.02998 3.57321C8.79073 3.5 8.52063 3.5 7.98042 3.5C7.19017 3.5 6.79504 3.5 6.46335 3.65191C6.07263 3.83085 5.71978 4.2194 5.57918 4.6255C5.45983 4.97024 5.49403 5.32453 5.56239 6.03308C6.29017 13.5752 10.4251 17.7101 17.9671 18.4378C18.6757 18.5062 19.03 18.5404 19.3747 18.4211C19.7809 18.2805 20.1694 17.9276 20.3484 17.5369C20.5002 17.2052 20.5002 16.8101 20.5002 16.0198C20.5002 15.4796 20.5002 15.2095 20.427 14.9702C20.3353 14.6704 20.1611 14.4024 19.9244 14.1968C19.7355 14.0327 19.4887 13.9231 18.995 13.7037L18.24 13.3681C17.7055 13.1305 17.4381 13.0117 17.1665 12.9859C16.9065 12.9612 16.6445 12.9977 16.4011 13.0924C16.1469 13.1914 15.9222 13.3787 15.4727 13.7532C15.0254 14.126 14.8017 14.3124 14.5284 14.4122C14.286 14.5007 13.9657 14.5336 13.7105 14.4959C13.4226 14.4535 13.2022 14.3358 12.7613 14.1001C11.3896 13.3671 10.6332 12.6107 9.90013 11.2389C9.66453 10.7981 9.54673 10.5776 9.5043 10.2898C9.46669 10.0345 9.49948 9.71417 9.58799 9.47192C9.68784 9.19857 9.87425 8.97488 10.2471 8.5275C10.6216 8.07807 10.8089 7.85335 10.9079 7.59909C11.0026 7.35578 11.0391 7.09367 11.0144 6.83373C10.9885 6.5621 10.8697 6.2948 10.6321 5.76019Z" stroke="#6C6C6C" stroke-width="1.5" stroke-linecap="round"/>
</svg>
