<svg width="27" height="22" viewBox="0 0 27 22" fill="none" xmlns="http://www.w3.org/2000/svg">
<path d="M8.75623 9.16667V6.41667V6.41667C8.75623 4.39175 10.7165 2.75 13.1343 2.75V2.75C15.5521 2.75 17.5124 4.39175 17.5124 6.41667V6.41667V9.16667" stroke="#6C6C6C" stroke-width="1.3" stroke-linecap="round" stroke-linejoin="round"/>
<path fill-rule="evenodd" clip-rule="evenodd" d="M18.607 19.2498H7.6617C6.45224 19.2498 5.47264 18.4294 5.47264 17.4165V10.9998C5.47264 9.98692 6.45224 9.1665 7.6617 9.1665H18.607C19.8164 9.1665 20.796 9.98692 20.796 10.9998V17.4165C20.796 18.4294 19.8164 19.2498 18.607 19.2498Z" stroke="#6C6C6C" stroke-width="1.3" stroke-linecap="round" stroke-linejoin="round"/>
<path d="M9.85075 14.2457C9.84746 14.2457 9.84527 14.2476 9.84527 14.2503C9.84527 14.2531 9.84746 14.2549 9.85075 14.2549C9.85403 14.2549 9.85622 14.2531 9.85622 14.2503C9.85622 14.2476 9.85403 14.2457 9.85075 14.2457" stroke="#6C6C6C" stroke-width="1.5" stroke-linecap="round" stroke-linejoin="round"/>
<path d="M13.1398 14.2457C13.1365 14.2457 13.1343 14.2476 13.1343 14.2503C13.1343 14.2531 13.1376 14.2549 13.1398 14.2549C13.1431 14.2549 13.1453 14.2531 13.1453 14.2503C13.1453 14.2476 13.1431 14.2457 13.1398 14.2457" stroke="#6C6C6C" stroke-width="1.5" stroke-linecap="round" stroke-linejoin="round"/>
<path d="M16.4179 14.2457C16.4146 14.2457 16.4124 14.2476 16.4124 14.2503C16.4124 14.2531 16.4146 14.2549 16.4179 14.2549C16.4212 14.2549 16.4234 14.2531 16.4234 14.2503C16.4234 14.2476 16.4212 14.2457 16.4179 14.2457" stroke="#6C6C6C" stroke-width="1.5" stroke-linecap="round" stroke-linejoin="round"/>
</svg>
