<svg width="18" height="19" viewBox="0 0 18 19" fill="none" xmlns="http://www.w3.org/2000/svg">
<path d="M8.32527 2.63867C5.5886 2.64359 4.15552 2.71078 3.23969 3.62659C2.25134 4.61491 2.25134 6.20558 2.25134 9.38689C2.25134 12.5682 2.25134 14.1589 3.23969 15.1472C4.22802 16.1355 5.81874 16.1355 9.0002 16.1355C12.1815 16.1355 13.7723 16.1355 14.7606 15.1472C15.6765 14.2314 15.7437 12.7984 15.7486 10.0618" stroke="#430B92" stroke-width="1.5" stroke-linecap="round" stroke-linejoin="round"/>
<path d="M15.3602 3.02452L11.1982 7.17501M15.3602 3.02452C14.9897 2.65363 12.494 2.68821 11.9664 2.69571M15.3602 3.02452C15.7306 3.3954 15.6961 5.89385 15.6886 6.42204" stroke="#430B92" stroke-width="1.5" stroke-linecap="round" stroke-linejoin="round"/>
</svg>
