<svg width="18" height="19" viewBox="0 0 18 19" fill="none" xmlns="http://www.w3.org/2000/svg">
<path d="M8.32539 2.63672C5.58872 2.64164 4.15564 2.70882 3.23981 3.62464C2.25146 4.61295 2.25146 6.20363 2.25146 9.38493C2.25146 12.5663 2.25146 14.157 3.23981 15.1452C4.22814 16.1336 5.81886 16.1336 9.00032 16.1336C12.1817 16.1336 13.7724 16.1336 14.7608 15.1452C15.6766 14.2295 15.7438 12.7965 15.7487 10.0599" stroke="#430B92" stroke-width="1.5" stroke-linecap="round" stroke-linejoin="round"/>
<path d="M15.3602 3.02256L11.1982 7.17306M15.3602 3.02256C14.9897 2.65168 12.494 2.68625 11.9664 2.69375M15.3602 3.02256C15.7306 3.39344 15.6961 5.8919 15.6886 6.42008" stroke="#430B92" stroke-width="1.5" stroke-linecap="round" stroke-linejoin="round"/>
</svg>
