<svg width="18" height="19" viewBox="0 0 18 19" fill="none" xmlns="http://www.w3.org/2000/svg">
<path d="M8.32527 3.02539C5.5886 3.03031 4.15552 3.0975 3.23969 4.01331C2.25134 5.00163 2.25134 6.5923 2.25134 9.77361C2.25134 12.955 2.25134 14.5456 3.23969 15.5339C4.22802 16.5223 5.81874 16.5223 9.0002 16.5223C12.1815 16.5223 13.7723 16.5223 14.7606 15.5339C15.6765 14.6182 15.7437 13.1851 15.7486 10.4485" stroke="#430B92" stroke-width="1.5" stroke-linecap="round" stroke-linejoin="round"/>
<path d="M15.3602 3.41123L11.1982 7.56173M15.3602 3.41123C14.9897 3.04035 12.494 3.07493 11.9664 3.08243M15.3602 3.41123C15.7306 3.78212 15.6961 6.28057 15.6886 6.80876" stroke="#430B92" stroke-width="1.5" stroke-linecap="round" stroke-linejoin="round"/>
</svg>
