<svg width="18" height="19" viewBox="0 0 18 19" fill="none" xmlns="http://www.w3.org/2000/svg">
<path d="M8.32527 2.41016C5.5886 2.41508 4.15552 2.48226 3.23969 3.39808C2.25134 4.38639 2.25134 5.97707 2.25134 9.15837C2.25134 12.3397 2.25134 13.9304 3.23969 14.9187C4.22802 15.907 5.81874 15.907 9.0002 15.907C12.1815 15.907 13.7723 15.907 14.7606 14.9187C15.6765 14.0029 15.7437 12.5699 15.7486 9.8333" stroke="#430B92" stroke-width="1.5" stroke-linecap="round" stroke-linejoin="round"/>
<path d="M15.3602 2.796L11.1982 6.94649M15.3602 2.796C14.9897 2.42512 12.494 2.45969 11.9664 2.46719M15.3602 2.796C15.7306 3.16688 15.6961 5.66533 15.6886 6.19352" stroke="#430B92" stroke-width="1.5" stroke-linecap="round" stroke-linejoin="round"/>
</svg>
