<svg width="18" height="19" viewBox="0 0 18 19" fill="none" xmlns="http://www.w3.org/2000/svg">
<path d="M8.32539 2.4082C5.58872 2.41312 4.15564 2.48031 3.23981 3.39613C2.25146 4.38444 2.25146 5.97511 2.25146 9.15642C2.25146 12.3378 2.25146 13.9284 3.23981 14.9167C4.22814 15.9051 5.81886 15.9051 9.00032 15.9051C12.1817 15.9051 13.7724 15.9051 14.7608 14.9167C15.6766 14.001 15.7438 12.5679 15.7487 9.83134" stroke="#430B92" stroke-width="1.5" stroke-linecap="round" stroke-linejoin="round"/>
<path d="M15.3602 2.79405L11.1982 6.94454M15.3602 2.79405C14.9897 2.42316 12.494 2.45774 11.9664 2.46524M15.3602 2.79405C15.7306 3.16493 15.6961 5.66338 15.6886 6.19157" stroke="#430B92" stroke-width="1.5" stroke-linecap="round" stroke-linejoin="round"/>
</svg>
