<svg width="18" height="19" viewBox="0 0 18 19" fill="none" xmlns="http://www.w3.org/2000/svg">
<path d="M8.32539 2.79688C5.58872 2.8018 4.15564 2.86898 3.23981 3.7848C2.25146 4.77311 2.25146 6.36378 2.25146 9.54509C2.25146 12.7264 2.25146 14.3171 3.23981 15.3054C4.22814 16.2937 5.81886 16.2937 9.00032 16.2937C12.1817 16.2937 13.7724 16.2937 14.7608 15.3054C15.6766 14.3896 15.7438 12.9566 15.7487 10.22" stroke="#430B92" stroke-width="1.5" stroke-linecap="round" stroke-linejoin="round"/>
<path d="M15.3602 3.18272L11.1982 7.33321M15.3602 3.18272C14.9897 2.81184 12.494 2.84641 11.9664 2.85391M15.3602 3.18272C15.7306 3.5536 15.6961 6.05205 15.6886 6.58024" stroke="#430B92" stroke-width="1.5" stroke-linecap="round" stroke-linejoin="round"/>
</svg>
