<svg width="18" height="19" viewBox="0 0 18 19" fill="none" xmlns="http://www.w3.org/2000/svg">
<path d="M8.32527 3.18164C5.5886 3.18656 4.15552 3.25375 3.23969 4.16956C2.25134 5.15788 2.25134 6.74855 2.25134 9.92986C2.25134 13.1112 2.25134 14.7019 3.23969 15.6902C4.22802 16.6785 5.81874 16.6785 9.0002 16.6785C12.1815 16.6785 13.7723 16.6785 14.7606 15.6902C15.6765 14.7744 15.7437 13.3414 15.7486 10.6048" stroke="#430B92" stroke-width="1.5" stroke-linecap="round" stroke-linejoin="round"/>
<path d="M15.3602 3.56748L11.1982 7.71798M15.3602 3.56748C14.9897 3.1966 12.494 3.23118 11.9664 3.23868M15.3602 3.56748C15.7306 3.93837 15.6961 6.43682 15.6886 6.96501" stroke="#430B92" stroke-width="1.5" stroke-linecap="round" stroke-linejoin="round"/>
</svg>
