<svg width="27" height="22" viewBox="0 0 27 22" fill="none" xmlns="http://www.w3.org/2000/svg">
<path fill-rule="evenodd" clip-rule="evenodd" d="M18.6092 16.5024V11.0001C18.6094 10.5136 18.3787 10.0471 17.968 9.70306C17.5573 9.35907 17.0001 9.16588 16.4193 9.16602H5.46945C4.88858 9.16588 4.33146 9.35907 3.92073 9.70306C3.51 10.0471 3.27932 10.5136 3.27948 11.0001V16.5024C3.27932 16.9889 3.51 17.4555 3.92073 17.7995C4.33146 18.1434 4.88858 18.3366 5.46945 18.3365H16.4193C17.6287 18.3365 18.6092 17.5153 18.6092 16.5024Z" stroke="#6C6C6C" stroke-width="1.3" stroke-linecap="round" stroke-linejoin="round"/>
<path d="M3.27948 12.9077H18.6092" stroke="#6C6C6C" stroke-width="1.3" stroke-linecap="round" stroke-linejoin="round"/>
<path d="M6.78339 9.16583L8.10832 5.02077C8.25864 4.55101 8.626 4.15065 9.12931 3.90806C9.63262 3.66546 10.2305 3.60058 10.791 3.72774L21.3686 6.10289C21.9295 6.22879 22.4075 6.53645 22.6972 6.95797C22.9868 7.3795 23.0643 7.88023 22.9125 8.34966L21.2153 13.6594C20.9132 14.615 19.7585 15.1961 18.6092 14.9708" stroke="#6C6C6C" stroke-width="1.3" stroke-linecap="round" stroke-linejoin="round"/>
</svg>
