<svg width="250" height="250" viewBox="0 0 250 250" fill="none" xmlns="http://www.w3.org/2000/svg">
<rect width="250" height="250" fill="white"/>
<path d="M15.1515 15.1514H22.7272V22.7271H15.1515V15.1514Z" fill="#0B0218"/>
<path d="M22.7272 15.1514H30.303V22.7271H22.7272V15.1514Z" fill="#0B0218"/>
<path d="M30.303 15.1514H37.8788V22.7271H30.303V15.1514Z" fill="#0B0218"/>
<path d="M37.8788 15.1514H45.4545V22.7271H37.8788V15.1514Z" fill="#0B0218"/>
<path d="M45.4545 15.1514H53.0303V22.7271H45.4545V15.1514Z" fill="#0B0218"/>
<path d="M53.0303 15.1514H60.606V22.7271H53.0303V15.1514Z" fill="#0B0218"/>
<path d="M60.606 15.1514H68.1818V22.7271H60.606V15.1514Z" fill="#0B0218"/>
<path d="M83.3333 15.1514H90.9091V22.7271H83.3333V15.1514Z" fill="#0B0218"/>
<path d="M90.9091 15.1514H98.4848V22.7271H90.9091V15.1514Z" fill="#0B0218"/>
<path d="M151.515 15.1514H159.091V22.7271H151.515V15.1514Z" fill="#0B0218"/>
<path d="M166.667 15.1514H174.242V22.7271H166.667V15.1514Z" fill="#0B0218"/>
<path d="M181.818 15.1514H189.394V22.7271H181.818V15.1514Z" fill="#0B0218"/>
<path d="M189.394 15.1514H196.97V22.7271H189.394V15.1514Z" fill="#0B0218"/>
<path d="M196.97 15.1514H204.545V22.7271H196.97V15.1514Z" fill="#0B0218"/>
<path d="M204.545 15.1514H212.121V22.7271H204.545V15.1514Z" fill="#0B0218"/>
<path d="M212.121 15.1514H219.697V22.7271H212.121V15.1514Z" fill="#0B0218"/>
<path d="M219.697 15.1514H227.273V22.7271H219.697V15.1514Z" fill="#0B0218"/>
<path d="M227.273 15.1514H234.848V22.7271H227.273V15.1514Z" fill="#0B0218"/>
<path d="M15.1515 22.7271H22.7272V30.3029H15.1515V22.7271Z" fill="#0B0218"/>
<path d="M60.606 22.7271H68.1818V30.3029H60.606V22.7271Z" fill="#0B0218"/>
<path d="M75.7575 22.7271H83.3333V30.3029H75.7575V22.7271Z" fill="#0B0218"/>
<path d="M83.3333 22.7271H90.9091V30.3029H83.3333V22.7271Z" fill="#0B0218"/>
<path d="M98.4848 22.7271H106.061V30.3029H98.4848V22.7271Z" fill="#0B0218"/>
<path d="M106.061 22.7271H113.636V30.3029H106.061V22.7271Z" fill="#0B0218"/>
<path d="M113.636 22.7271H121.212V30.3029H113.636V22.7271Z" fill="#0B0218"/>
<path d="M121.212 22.7271H128.788V30.3029H121.212V22.7271Z" fill="#0B0218"/>
<path d="M128.788 22.7271H136.364V30.3029H128.788V22.7271Z" fill="#0B0218"/>
<path d="M143.939 22.7271H151.515V30.3029H143.939V22.7271Z" fill="#0B0218"/>
<path d="M159.091 22.7271H166.667V30.3029H159.091V22.7271Z" fill="#0B0218"/>
<path d="M181.818 22.7271H189.394V30.3029H181.818V22.7271Z" fill="#0B0218"/>
<path d="M227.273 22.7271H234.848V30.3029H227.273V22.7271Z" fill="#0B0218"/>
<path d="M15.1515 30.3029H22.7272V37.8786H15.1515V30.3029Z" fill="#0B0218"/>
<path d="M30.303 30.3029H37.8788V37.8786H30.303V30.3029Z" fill="#0B0218"/>
<path d="M37.8788 30.3029H45.4545V37.8786H37.8788V30.3029Z" fill="#0B0218"/>
<path d="M45.4545 30.3029H53.0303V37.8786H45.4545V30.3029Z" fill="#0B0218"/>
<path d="M60.606 30.3029H68.1818V37.8786H60.606V30.3029Z" fill="#0B0218"/>
<path d="M90.9091 30.3029H98.4848V37.8786H90.9091V30.3029Z" fill="#0B0218"/>
<path d="M98.4848 30.3029H106.061V37.8786H98.4848V30.3029Z" fill="#0B0218"/>
<path d="M121.212 30.3029H128.788V37.8786H121.212V30.3029Z" fill="#0B0218"/>
<path d="M128.788 30.3029H136.364V37.8786H128.788V30.3029Z" fill="#0B0218"/>
<path d="M136.364 30.3029H143.939V37.8786H136.364V30.3029Z" fill="#0B0218"/>
<path d="M143.939 30.3029H151.515V37.8786H143.939V30.3029Z" fill="#0B0218"/>
<path d="M151.515 30.3029H159.091V37.8786H151.515V30.3029Z" fill="#0B0218"/>
<path d="M159.091 30.3029H166.667V37.8786H159.091V30.3029Z" fill="#0B0218"/>
<path d="M166.667 30.3029H174.242V37.8786H166.667V30.3029Z" fill="#0B0218"/>
<path d="M181.818 30.3029H189.394V37.8786H181.818V30.3029Z" fill="#0B0218"/>
<path d="M196.97 30.3029H204.545V37.8786H196.97V30.3029Z" fill="#0B0218"/>
<path d="M204.545 30.3029H212.121V37.8786H204.545V30.3029Z" fill="#0B0218"/>
<path d="M212.121 30.3029H219.697V37.8786H212.121V30.3029Z" fill="#0B0218"/>
<path d="M227.273 30.3029H234.848V37.8786H227.273V30.3029Z" fill="#0B0218"/>
<path d="M15.1515 37.8786H22.7272V45.4544H15.1515V37.8786Z" fill="#0B0218"/>
<path d="M30.303 37.8786H37.8788V45.4544H30.303V37.8786Z" fill="#0B0218"/>
<path d="M37.8788 37.8786H45.4545V45.4544H37.8788V37.8786Z" fill="#0B0218"/>
<path d="M45.4545 37.8786H53.0303V45.4544H45.4545V37.8786Z" fill="#0B0218"/>
<path d="M60.606 37.8786H68.1818V45.4544H60.606V37.8786Z" fill="#0B0218"/>
<path d="M98.4848 37.8786H106.061V45.4544H98.4848V37.8786Z" fill="#0B0218"/>
<path d="M113.636 37.8786H121.212V45.4544H113.636V37.8786Z" fill="#0B0218"/>
<path d="M159.091 37.8786H166.667V45.4544H159.091V37.8786Z" fill="#0B0218"/>
<path d="M166.667 37.8786H174.242V45.4544H166.667V37.8786Z" fill="#0B0218"/>
<path d="M181.818 37.8786H189.394V45.4544H181.818V37.8786Z" fill="#0B0218"/>
<path d="M196.97 37.8786H204.545V45.4544H196.97V37.8786Z" fill="#0B0218"/>
<path d="M204.545 37.8786H212.121V45.4544H204.545V37.8786Z" fill="#0B0218"/>
<path d="M212.121 37.8786H219.697V45.4544H212.121V37.8786Z" fill="#0B0218"/>
<path d="M227.273 37.8786H234.848V45.4544H227.273V37.8786Z" fill="#0B0218"/>
<path d="M15.1515 45.4544H22.7272V53.0302H15.1515V45.4544Z" fill="#0B0218"/>
<path d="M30.303 45.4544H37.8788V53.0302H30.303V45.4544Z" fill="#0B0218"/>
<path d="M37.8788 45.4544H45.4545V53.0302H37.8788V45.4544Z" fill="#0B0218"/>
<path d="M45.4545 45.4544H53.0303V53.0302H45.4545V45.4544Z" fill="#0B0218"/>
<path d="M60.606 45.4544H68.1818V53.0302H60.606V45.4544Z" fill="#0B0218"/>
<path d="M83.3333 45.4544H90.9091V53.0302H83.3333V45.4544Z" fill="#0B0218"/>
<path d="M98.4848 45.4544H106.061V53.0302H98.4848V45.4544Z" fill="#0B0218"/>
<path d="M106.061 45.4544H113.636V53.0302H106.061V45.4544Z" fill="#0B0218"/>
<path d="M113.636 45.4544H121.212V53.0302H113.636V45.4544Z" fill="#0B0218"/>
<path d="M136.364 45.4544H143.939V53.0302H136.364V45.4544Z" fill="#0B0218"/>
<path d="M143.939 45.4544H151.515V53.0302H143.939V45.4544Z" fill="#0B0218"/>
<path d="M151.515 45.4544H159.091V53.0302H151.515V45.4544Z" fill="#0B0218"/>
<path d="M181.818 45.4544H189.394V53.0302H181.818V45.4544Z" fill="#0B0218"/>
<path d="M196.97 45.4544H204.545V53.0302H196.97V45.4544Z" fill="#0B0218"/>
<path d="M204.545 45.4544H212.121V53.0302H204.545V45.4544Z" fill="#0B0218"/>
<path d="M212.121 45.4544H219.697V53.0302H212.121V45.4544Z" fill="#0B0218"/>
<path d="M227.273 45.4544H234.848V53.0302H227.273V45.4544Z" fill="#0B0218"/>
<path d="M15.1515 53.0302H22.7272V60.6059H15.1515V53.0302Z" fill="#0B0218"/>
<path d="M60.606 53.0302H68.1818V60.6059H60.606V53.0302Z" fill="#0B0218"/>
<path d="M75.7575 53.0302H83.3333V60.6059H75.7575V53.0302Z" fill="#0B0218"/>
<path d="M83.3333 53.0302H90.9091V60.6059H83.3333V53.0302Z" fill="#0B0218"/>
<path d="M90.9091 53.0302H98.4848V60.6059H90.9091V53.0302Z" fill="#0B0218"/>
<path d="M106.061 53.0302H113.636V60.6059H106.061V53.0302Z" fill="#0B0218"/>
<path d="M113.636 53.0302H121.212V60.6059H113.636V53.0302Z" fill="#0B0218"/>
<path d="M136.364 53.0302H143.939V60.6059H136.364V53.0302Z" fill="#0B0218"/>
<path d="M143.939 53.0302H151.515V60.6059H143.939V53.0302Z" fill="#0B0218"/>
<path d="M159.091 53.0302H166.667V60.6059H159.091V53.0302Z" fill="#0B0218"/>
<path d="M181.818 53.0302H189.394V60.6059H181.818V53.0302Z" fill="#0B0218"/>
<path d="M227.273 53.0302H234.848V60.6059H227.273V53.0302Z" fill="#0B0218"/>
<path d="M15.1515 60.6059H22.7272V68.1817H15.1515V60.6059Z" fill="#0B0218"/>
<path d="M22.7272 60.6059H30.303V68.1817H22.7272V60.6059Z" fill="#0B0218"/>
<path d="M30.303 60.6059H37.8788V68.1817H30.303V60.6059Z" fill="#0B0218"/>
<path d="M37.8788 60.6059H45.4545V68.1817H37.8788V60.6059Z" fill="#0B0218"/>
<path d="M45.4545 60.6059H53.0303V68.1817H45.4545V60.6059Z" fill="#0B0218"/>
<path d="M53.0303 60.6059H60.606V68.1817H53.0303V60.6059Z" fill="#0B0218"/>
<path d="M60.606 60.6059H68.1818V68.1817H60.606V60.6059Z" fill="#0B0218"/>
<path d="M75.7575 60.6059H83.3333V68.1817H75.7575V60.6059Z" fill="#0B0218"/>
<path d="M90.9091 60.6059H98.4848V68.1817H90.9091V60.6059Z" fill="#0B0218"/>
<path d="M106.061 60.6059H113.636V68.1817H106.061V60.6059Z" fill="#0B0218"/>
<path d="M121.212 60.6059H128.788V68.1817H121.212V60.6059Z" fill="#0B0218"/>
<path d="M136.364 60.6059H143.939V68.1817H136.364V60.6059Z" fill="#0B0218"/>
<path d="M151.515 60.6059H159.091V68.1817H151.515V60.6059Z" fill="#0B0218"/>
<path d="M166.667 60.6059H174.242V68.1817H166.667V60.6059Z" fill="#0B0218"/>
<path d="M181.818 60.6059H189.394V68.1817H181.818V60.6059Z" fill="#0B0218"/>
<path d="M189.394 60.6059H196.97V68.1817H189.394V60.6059Z" fill="#0B0218"/>
<path d="M196.97 60.6059H204.545V68.1817H196.97V60.6059Z" fill="#0B0218"/>
<path d="M204.545 60.6059H212.121V68.1817H204.545V60.6059Z" fill="#0B0218"/>
<path d="M212.121 60.6059H219.697V68.1817H212.121V60.6059Z" fill="#0B0218"/>
<path d="M219.697 60.6059H227.273V68.1817H219.697V60.6059Z" fill="#0B0218"/>
<path d="M227.273 60.6059H234.848V68.1817H227.273V60.6059Z" fill="#0B0218"/>
<path d="M75.7575 68.1817H83.3333V75.7574H75.7575V68.1817Z" fill="#0B0218"/>
<path d="M90.9091 68.1817H98.4848V75.7574H90.9091V68.1817Z" fill="#0B0218"/>
<path d="M98.4848 68.1817H106.061V75.7574H98.4848V68.1817Z" fill="#0B0218"/>
<path d="M121.212 68.1817H128.788V75.7574H121.212V68.1817Z" fill="#0B0218"/>
<path d="M128.788 68.1817H136.364V75.7574H128.788V68.1817Z" fill="#0B0218"/>
<path d="M143.939 68.1817H151.515V75.7574H143.939V68.1817Z" fill="#0B0218"/>
<path d="M151.515 68.1817H159.091V75.7574H151.515V68.1817Z" fill="#0B0218"/>
<path d="M159.091 68.1817H166.667V75.7574H159.091V68.1817Z" fill="#0B0218"/>
<path d="M166.667 68.1817H174.242V75.7574H166.667V68.1817Z" fill="#0B0218"/>
<path d="M45.4545 75.7574H53.0303V83.3332H45.4545V75.7574Z" fill="#0B0218"/>
<path d="M53.0303 75.7574H60.606V83.3332H53.0303V75.7574Z" fill="#0B0218"/>
<path d="M60.606 75.7574H68.1818V83.3332H60.606V75.7574Z" fill="#0B0218"/>
<path d="M68.1818 75.7574H75.7575V83.3332H68.1818V75.7574Z" fill="#0B0218"/>
<path d="M90.9091 75.7574H98.4848V83.3332H90.9091V75.7574Z" fill="#0B0218"/>
<path d="M98.4848 75.7574H106.061V83.3332H98.4848V75.7574Z" fill="#0B0218"/>
<path d="M113.636 75.7574H121.212V83.3332H113.636V75.7574Z" fill="#0B0218"/>
<path d="M121.212 75.7574H128.788V83.3332H121.212V75.7574Z" fill="#0B0218"/>
<path d="M128.788 75.7574H136.364V83.3332H128.788V75.7574Z" fill="#0B0218"/>
<path d="M136.364 75.7574H143.939V83.3332H136.364V75.7574Z" fill="#0B0218"/>
<path d="M151.515 75.7574H159.091V83.3332H151.515V75.7574Z" fill="#0B0218"/>
<path d="M159.091 75.7574H166.667V83.3332H159.091V75.7574Z" fill="#0B0218"/>
<path d="M166.667 75.7574H174.242V83.3332H166.667V75.7574Z" fill="#0B0218"/>
<path d="M181.818 75.7574H189.394V83.3332H181.818V75.7574Z" fill="#0B0218"/>
<path d="M189.394 75.7574H196.97V83.3332H189.394V75.7574Z" fill="#0B0218"/>
<path d="M219.697 75.7574H227.273V83.3332H219.697V75.7574Z" fill="#0B0218"/>
<path d="M30.303 83.3332H37.8788V90.9089H30.303V83.3332Z" fill="#0B0218"/>
<path d="M37.8788 83.3332H45.4545V90.9089H37.8788V83.3332Z" fill="#0B0218"/>
<path d="M53.0303 83.3332H60.606V90.9089H53.0303V83.3332Z" fill="#0B0218"/>
<path d="M68.1818 83.3332H75.7575V90.9089H68.1818V83.3332Z" fill="#0B0218"/>
<path d="M75.7575 83.3332H83.3333V90.9089H75.7575V83.3332Z" fill="#0B0218"/>
<path d="M90.9091 83.3332H98.4848V90.9089H90.9091V83.3332Z" fill="#0B0218"/>
<path d="M98.4848 83.3332H106.061V90.9089H98.4848V83.3332Z" fill="#0B0218"/>
<path d="M121.212 83.3332H128.788V90.9089H121.212V83.3332Z" fill="#0B0218"/>
<path d="M128.788 83.3332H136.364V90.9089H128.788V83.3332Z" fill="#0B0218"/>
<path d="M151.515 83.3332H159.091V90.9089H151.515V83.3332Z" fill="#0B0218"/>
<path d="M181.818 83.3332H189.394V90.9089H181.818V83.3332Z" fill="#0B0218"/>
<path d="M189.394 83.3332H196.97V90.9089H189.394V83.3332Z" fill="#0B0218"/>
<path d="M196.97 83.3332H204.545V90.9089H196.97V83.3332Z" fill="#0B0218"/>
<path d="M204.545 83.3332H212.121V90.9089H204.545V83.3332Z" fill="#0B0218"/>
<path d="M212.121 83.3332H219.697V90.9089H212.121V83.3332Z" fill="#0B0218"/>
<path d="M219.697 83.3332H227.273V90.9089H219.697V83.3332Z" fill="#0B0218"/>
<path d="M227.273 83.3332H234.848V90.9089H227.273V83.3332Z" fill="#0B0218"/>
<path d="M15.1515 90.9089H22.7272V98.4847H15.1515V90.9089Z" fill="#0B0218"/>
<path d="M22.7272 90.9089H30.303V98.4847H22.7272V90.9089Z" fill="#0B0218"/>
<path d="M53.0303 90.9089H60.606V98.4847H53.0303V90.9089Z" fill="#0B0218"/>
<path d="M60.606 90.9089H68.1818V98.4847H60.606V90.9089Z" fill="#0B0218"/>
<path d="M68.1818 90.9089H75.7575V98.4847H68.1818V90.9089Z" fill="#0B0218"/>
<path d="M83.3333 90.9089H90.9091V98.4847H83.3333V90.9089Z" fill="#0B0218"/>
<path d="M143.939 90.9089H151.515V98.4847H143.939V90.9089Z" fill="#0B0218"/>
<path d="M151.515 90.9089H159.091V98.4847H151.515V90.9089Z" fill="#0B0218"/>
<path d="M166.667 90.9089H174.242V98.4847H166.667V90.9089Z" fill="#0B0218"/>
<path d="M174.242 90.9089H181.818V98.4847H174.242V90.9089Z" fill="#0B0218"/>
<path d="M212.121 90.9089H219.697V98.4847H212.121V90.9089Z" fill="#0B0218"/>
<path d="M227.273 90.9089H234.848V98.4847H227.273V90.9089Z" fill="#0B0218"/>
<path d="M22.7272 98.4847H30.303V106.06H22.7272V98.4847Z" fill="#0B0218"/>
<path d="M30.303 98.4847H37.8788V106.06H30.303V98.4847Z" fill="#0B0218"/>
<path d="M37.8788 98.4847H45.4545V106.06H37.8788V98.4847Z" fill="#0B0218"/>
<path d="M45.4545 98.4847H53.0303V106.06H45.4545V98.4847Z" fill="#0B0218"/>
<path d="M53.0303 98.4847H60.606V106.06H53.0303V98.4847Z" fill="#0B0218"/>
<path d="M83.3333 98.4847H90.9091V106.06H83.3333V98.4847Z" fill="#0B0218"/>
<path d="M98.4848 98.4847H106.061V106.06H98.4848V98.4847Z" fill="#0B0218"/>
<path d="M106.061 98.4847H113.636V106.06H106.061V98.4847Z" fill="#0B0218"/>
<path d="M121.212 98.4847H128.788V106.06H121.212V98.4847Z" fill="#0B0218"/>
<path d="M143.939 98.4847H151.515V106.06H143.939V98.4847Z" fill="#0B0218"/>
<path d="M151.515 98.4847H159.091V106.06H151.515V98.4847Z" fill="#0B0218"/>
<path d="M174.242 98.4847H181.818V106.06H174.242V98.4847Z" fill="#0B0218"/>
<path d="M189.394 98.4847H196.97V106.06H189.394V98.4847Z" fill="#0B0218"/>
<path d="M196.97 98.4847H204.545V106.06H196.97V98.4847Z" fill="#0B0218"/>
<path d="M204.545 98.4847H212.121V106.06H204.545V98.4847Z" fill="#0B0218"/>
<path d="M219.697 98.4847H227.273V106.06H219.697V98.4847Z" fill="#0B0218"/>
<path d="M227.273 98.4847H234.848V106.06H227.273V98.4847Z" fill="#0B0218"/>
<path d="M22.7272 106.06H30.303V113.636H22.7272V106.06Z" fill="#0B0218"/>
<path d="M30.303 106.06H37.8788V113.636H30.303V106.06Z" fill="#0B0218"/>
<path d="M45.4545 106.06H53.0303V113.636H45.4545V106.06Z" fill="#0B0218"/>
<path d="M53.0303 106.06H60.606V113.636H53.0303V106.06Z" fill="#0B0218"/>
<path d="M60.606 106.06H68.1818V113.636H60.606V106.06Z" fill="#0B0218"/>
<path d="M68.1818 106.06H75.7575V113.636H68.1818V106.06Z" fill="#0B0218"/>
<path d="M75.7575 106.06H83.3333V113.636H75.7575V106.06Z" fill="#0B0218"/>
<path d="M90.9091 106.06H98.4848V113.636H90.9091V106.06Z" fill="#0B0218"/>
<path d="M98.4848 106.06H106.061V113.636H98.4848V106.06Z" fill="#0B0218"/>
<path d="M106.061 106.06H113.636V113.636H106.061V106.06Z" fill="#0B0218"/>
<path d="M121.212 106.06H128.788V113.636H121.212V106.06Z" fill="#0B0218"/>
<path d="M136.364 106.06H143.939V113.636H136.364V106.06Z" fill="#0B0218"/>
<path d="M151.515 106.06H159.091V113.636H151.515V106.06Z" fill="#0B0218"/>
<path d="M189.394 106.06H196.97V113.636H189.394V106.06Z" fill="#0B0218"/>
<path d="M204.545 106.06H212.121V113.636H204.545V106.06Z" fill="#0B0218"/>
<path d="M227.273 106.06H234.848V113.636H227.273V106.06Z" fill="#0B0218"/>
<path d="M15.1515 113.636H22.7272V121.212H15.1515V113.636Z" fill="#0B0218"/>
<path d="M22.7272 113.636H30.303V121.212H22.7272V113.636Z" fill="#0B0218"/>
<path d="M37.8788 113.636H45.4545V121.212H37.8788V113.636Z" fill="#0B0218"/>
<path d="M121.212 113.636H128.788V121.212H121.212V113.636Z" fill="#0B0218"/>
<path d="M128.788 113.636H136.364V121.212H128.788V113.636Z" fill="#0B0218"/>
<path d="M181.818 113.636H189.394V121.212H181.818V113.636Z" fill="#0B0218"/>
<path d="M196.97 113.636H204.545V121.212H196.97V113.636Z" fill="#0B0218"/>
<path d="M212.121 113.636H219.697V121.212H212.121V113.636Z" fill="#0B0218"/>
<path d="M219.697 113.636H227.273V121.212H219.697V113.636Z" fill="#0B0218"/>
<path d="M227.273 113.636H234.848V121.212H227.273V113.636Z" fill="#0B0218"/>
<path d="M60.606 121.212H68.1818V128.788H60.606V121.212Z" fill="#0B0218"/>
<path d="M68.1818 121.212H75.7575V128.788H68.1818V121.212Z" fill="#0B0218"/>
<path d="M75.7575 121.212H83.3333V128.788H75.7575V121.212Z" fill="#0B0218"/>
<path d="M83.3333 121.212H90.9091V128.788H83.3333V121.212Z" fill="#0B0218"/>
<path d="M121.212 121.212H128.788V128.788H121.212V121.212Z" fill="#0B0218"/>
<path d="M151.515 121.212H159.091V128.788H151.515V121.212Z" fill="#0B0218"/>
<path d="M166.667 121.212H174.242V128.788H166.667V121.212Z" fill="#0B0218"/>
<path d="M181.818 121.212H189.394V128.788H181.818V121.212Z" fill="#0B0218"/>
<path d="M196.97 121.212H204.545V128.788H196.97V121.212Z" fill="#0B0218"/>
<path d="M227.273 121.212H234.848V128.788H227.273V121.212Z" fill="#0B0218"/>
<path d="M15.1515 128.788H22.7272V136.363H15.1515V128.788Z" fill="#0B0218"/>
<path d="M22.7272 128.788H30.303V136.363H22.7272V128.788Z" fill="#0B0218"/>
<path d="M37.8788 128.788H45.4545V136.363H37.8788V128.788Z" fill="#0B0218"/>
<path d="M45.4545 128.788H53.0303V136.363H45.4545V128.788Z" fill="#0B0218"/>
<path d="M53.0303 128.788H60.606V136.363H53.0303V128.788Z" fill="#0B0218"/>
<path d="M68.1818 128.788H75.7575V136.363H68.1818V128.788Z" fill="#0B0218"/>
<path d="M90.9091 128.788H98.4848V136.363H90.9091V128.788Z" fill="#0B0218"/>
<path d="M98.4848 128.788H106.061V136.363H98.4848V128.788Z" fill="#0B0218"/>
<path d="M136.364 128.788H143.939V136.363H136.364V128.788Z" fill="#0B0218"/>
<path d="M159.091 128.788H166.667V136.363H159.091V128.788Z" fill="#0B0218"/>
<path d="M166.667 128.788H174.242V136.363H166.667V128.788Z" fill="#0B0218"/>
<path d="M174.242 128.788H181.818V136.363H174.242V128.788Z" fill="#0B0218"/>
<path d="M189.394 128.788H196.97V136.363H189.394V128.788Z" fill="#0B0218"/>
<path d="M204.545 128.788H212.121V136.363H204.545V128.788Z" fill="#0B0218"/>
<path d="M219.697 128.788H227.273V136.363H219.697V128.788Z" fill="#0B0218"/>
<path d="M15.1515 136.363H22.7272V143.939H15.1515V136.363Z" fill="#0B0218"/>
<path d="M30.303 136.363H37.8788V143.939H30.303V136.363Z" fill="#0B0218"/>
<path d="M45.4545 136.363H53.0303V143.939H45.4545V136.363Z" fill="#0B0218"/>
<path d="M60.606 136.363H68.1818V143.939H60.606V136.363Z" fill="#0B0218"/>
<path d="M90.9091 136.363H98.4848V143.939H90.9091V136.363Z" fill="#0B0218"/>
<path d="M98.4848 136.363H106.061V143.939H98.4848V136.363Z" fill="#0B0218"/>
<path d="M106.061 136.363H113.636V143.939H106.061V136.363Z" fill="#0B0218"/>
<path d="M113.636 136.363H121.212V143.939H113.636V136.363Z" fill="#0B0218"/>
<path d="M128.788 136.363H136.364V143.939H128.788V136.363Z" fill="#0B0218"/>
<path d="M136.364 136.363H143.939V143.939H136.364V136.363Z" fill="#0B0218"/>
<path d="M143.939 136.363H151.515V143.939H143.939V136.363Z" fill="#0B0218"/>
<path d="M159.091 136.363H166.667V143.939H159.091V136.363Z" fill="#0B0218"/>
<path d="M166.667 136.363H174.242V143.939H166.667V136.363Z" fill="#0B0218"/>
<path d="M174.242 136.363H181.818V143.939H174.242V136.363Z" fill="#0B0218"/>
<path d="M219.697 136.363H227.273V143.939H219.697V136.363Z" fill="#0B0218"/>
<path d="M15.1515 143.939H22.7272V151.515H15.1515V143.939Z" fill="#0B0218"/>
<path d="M37.8788 143.939H45.4545V151.515H37.8788V143.939Z" fill="#0B0218"/>
<path d="M53.0303 143.939H60.606V151.515H53.0303V143.939Z" fill="#0B0218"/>
<path d="M68.1818 143.939H75.7575V151.515H68.1818V143.939Z" fill="#0B0218"/>
<path d="M75.7575 143.939H83.3333V151.515H75.7575V143.939Z" fill="#0B0218"/>
<path d="M98.4848 143.939H106.061V151.515H98.4848V143.939Z" fill="#0B0218"/>
<path d="M106.061 143.939H113.636V151.515H106.061V143.939Z" fill="#0B0218"/>
<path d="M151.515 143.939H159.091V151.515H151.515V143.939Z" fill="#0B0218"/>
<path d="M174.242 143.939H181.818V151.515H174.242V143.939Z" fill="#0B0218"/>
<path d="M181.818 143.939H189.394V151.515H181.818V143.939Z" fill="#0B0218"/>
<path d="M189.394 143.939H196.97V151.515H189.394V143.939Z" fill="#0B0218"/>
<path d="M196.97 143.939H204.545V151.515H196.97V143.939Z" fill="#0B0218"/>
<path d="M212.121 143.939H219.697V151.515H212.121V143.939Z" fill="#0B0218"/>
<path d="M227.273 143.939H234.848V151.515H227.273V143.939Z" fill="#0B0218"/>
<path d="M37.8788 151.515H45.4545V159.091H37.8788V151.515Z" fill="#0B0218"/>
<path d="M60.606 151.515H68.1818V159.091H60.606V151.515Z" fill="#0B0218"/>
<path d="M68.1818 151.515H75.7575V159.091H68.1818V151.515Z" fill="#0B0218"/>
<path d="M90.9091 151.515H98.4848V159.091H90.9091V151.515Z" fill="#0B0218"/>
<path d="M121.212 151.515H128.788V159.091H121.212V151.515Z" fill="#0B0218"/>
<path d="M136.364 151.515H143.939V159.091H136.364V151.515Z" fill="#0B0218"/>
<path d="M143.939 151.515H151.515V159.091H143.939V151.515Z" fill="#0B0218"/>
<path d="M189.394 151.515H196.97V159.091H189.394V151.515Z" fill="#0B0218"/>
<path d="M204.545 151.515H212.121V159.091H204.545V151.515Z" fill="#0B0218"/>
<path d="M227.273 151.515H234.848V159.091H227.273V151.515Z" fill="#0B0218"/>
<path d="M30.303 159.091H37.8788V166.667H30.303V159.091Z" fill="#0B0218"/>
<path d="M37.8788 159.091H45.4545V166.667H37.8788V159.091Z" fill="#0B0218"/>
<path d="M68.1818 159.091H75.7575V166.667H68.1818V159.091Z" fill="#0B0218"/>
<path d="M75.7575 159.091H83.3333V166.667H75.7575V159.091Z" fill="#0B0218"/>
<path d="M83.3333 159.091H90.9091V166.667H83.3333V159.091Z" fill="#0B0218"/>
<path d="M90.9091 159.091H98.4848V166.667H90.9091V159.091Z" fill="#0B0218"/>
<path d="M106.061 159.091H113.636V166.667H106.061V159.091Z" fill="#0B0218"/>
<path d="M113.636 159.091H121.212V166.667H113.636V159.091Z" fill="#0B0218"/>
<path d="M121.212 159.091H128.788V166.667H121.212V159.091Z" fill="#0B0218"/>
<path d="M136.364 159.091H143.939V166.667H136.364V159.091Z" fill="#0B0218"/>
<path d="M143.939 159.091H151.515V166.667H143.939V159.091Z" fill="#0B0218"/>
<path d="M159.091 159.091H166.667V166.667H159.091V159.091Z" fill="#0B0218"/>
<path d="M166.667 159.091H174.242V166.667H166.667V159.091Z" fill="#0B0218"/>
<path d="M189.394 159.091H196.97V166.667H189.394V159.091Z" fill="#0B0218"/>
<path d="M196.97 159.091H204.545V166.667H196.97V159.091Z" fill="#0B0218"/>
<path d="M204.545 159.091H212.121V166.667H204.545V159.091Z" fill="#0B0218"/>
<path d="M219.697 159.091H227.273V166.667H219.697V159.091Z" fill="#0B0218"/>
<path d="M227.273 159.091H234.848V166.667H227.273V159.091Z" fill="#0B0218"/>
<path d="M15.1515 166.667H22.7272V174.242H15.1515V166.667Z" fill="#0B0218"/>
<path d="M22.7272 166.667H30.303V174.242H22.7272V166.667Z" fill="#0B0218"/>
<path d="M45.4545 166.667H53.0303V174.242H45.4545V166.667Z" fill="#0B0218"/>
<path d="M60.606 166.667H68.1818V174.242H60.606V166.667Z" fill="#0B0218"/>
<path d="M68.1818 166.667H75.7575V174.242H68.1818V166.667Z" fill="#0B0218"/>
<path d="M98.4848 166.667H106.061V174.242H98.4848V166.667Z" fill="#0B0218"/>
<path d="M113.636 166.667H121.212V174.242H113.636V166.667Z" fill="#0B0218"/>
<path d="M121.212 166.667H128.788V174.242H121.212V166.667Z" fill="#0B0218"/>
<path d="M151.515 166.667H159.091V174.242H151.515V166.667Z" fill="#0B0218"/>
<path d="M166.667 166.667H174.242V174.242H166.667V166.667Z" fill="#0B0218"/>
<path d="M174.242 166.667H181.818V174.242H174.242V166.667Z" fill="#0B0218"/>
<path d="M181.818 166.667H189.394V174.242H181.818V166.667Z" fill="#0B0218"/>
<path d="M189.394 166.667H196.97V174.242H189.394V166.667Z" fill="#0B0218"/>
<path d="M196.97 166.667H204.545V174.242H196.97V166.667Z" fill="#0B0218"/>
<path d="M227.273 166.667H234.848V174.242H227.273V166.667Z" fill="#0B0218"/>
<path d="M75.7575 174.242H83.3333V181.818H75.7575V174.242Z" fill="#0B0218"/>
<path d="M83.3333 174.242H90.9091V181.818H83.3333V174.242Z" fill="#0B0218"/>
<path d="M98.4848 174.242H106.061V181.818H98.4848V174.242Z" fill="#0B0218"/>
<path d="M106.061 174.242H113.636V181.818H106.061V174.242Z" fill="#0B0218"/>
<path d="M113.636 174.242H121.212V181.818H113.636V174.242Z" fill="#0B0218"/>
<path d="M151.515 174.242H159.091V181.818H151.515V174.242Z" fill="#0B0218"/>
<path d="M166.667 174.242H174.242V181.818H166.667V174.242Z" fill="#0B0218"/>
<path d="M196.97 174.242H204.545V181.818H196.97V174.242Z" fill="#0B0218"/>
<path d="M212.121 174.242H219.697V181.818H212.121V174.242Z" fill="#0B0218"/>
<path d="M227.273 174.242H234.848V181.818H227.273V174.242Z" fill="#0B0218"/>
<path d="M15.1515 181.818H22.7272V189.394H15.1515V181.818Z" fill="#0B0218"/>
<path d="M22.7272 181.818H30.303V189.394H22.7272V181.818Z" fill="#0B0218"/>
<path d="M30.303 181.818H37.8788V189.394H30.303V181.818Z" fill="#0B0218"/>
<path d="M37.8788 181.818H45.4545V189.394H37.8788V181.818Z" fill="#0B0218"/>
<path d="M45.4545 181.818H53.0303V189.394H45.4545V181.818Z" fill="#0B0218"/>
<path d="M53.0303 181.818H60.606V189.394H53.0303V181.818Z" fill="#0B0218"/>
<path d="M60.606 181.818H68.1818V189.394H60.606V181.818Z" fill="#0B0218"/>
<path d="M75.7575 181.818H83.3333V189.394H75.7575V181.818Z" fill="#0B0218"/>
<path d="M90.9091 181.818H98.4848V189.394H90.9091V181.818Z" fill="#0B0218"/>
<path d="M113.636 181.818H121.212V189.394H113.636V181.818Z" fill="#0B0218"/>
<path d="M128.788 181.818H136.364V189.394H128.788V181.818Z" fill="#0B0218"/>
<path d="M136.364 181.818H143.939V189.394H136.364V181.818Z" fill="#0B0218"/>
<path d="M151.515 181.818H159.091V189.394H151.515V181.818Z" fill="#0B0218"/>
<path d="M159.091 181.818H166.667V189.394H159.091V181.818Z" fill="#0B0218"/>
<path d="M166.667 181.818H174.242V189.394H166.667V181.818Z" fill="#0B0218"/>
<path d="M181.818 181.818H189.394V189.394H181.818V181.818Z" fill="#0B0218"/>
<path d="M196.97 181.818H204.545V189.394H196.97V181.818Z" fill="#0B0218"/>
<path d="M227.273 181.818H234.848V189.394H227.273V181.818Z" fill="#0B0218"/>
<path d="M15.1515 189.394H22.7272V196.97H15.1515V189.394Z" fill="#0B0218"/>
<path d="M60.606 189.394H68.1818V196.97H60.606V189.394Z" fill="#0B0218"/>
<path d="M75.7575 189.394H83.3333V196.97H75.7575V189.394Z" fill="#0B0218"/>
<path d="M83.3333 189.394H90.9091V196.97H83.3333V189.394Z" fill="#0B0218"/>
<path d="M90.9091 189.394H98.4848V196.97H90.9091V189.394Z" fill="#0B0218"/>
<path d="M106.061 189.394H113.636V196.97H106.061V189.394Z" fill="#0B0218"/>
<path d="M113.636 189.394H121.212V196.97H113.636V189.394Z" fill="#0B0218"/>
<path d="M128.788 189.394H136.364V196.97H128.788V189.394Z" fill="#0B0218"/>
<path d="M136.364 189.394H143.939V196.97H136.364V189.394Z" fill="#0B0218"/>
<path d="M151.515 189.394H159.091V196.97H151.515V189.394Z" fill="#0B0218"/>
<path d="M159.091 189.394H166.667V196.97H159.091V189.394Z" fill="#0B0218"/>
<path d="M166.667 189.394H174.242V196.97H166.667V189.394Z" fill="#0B0218"/>
<path d="M196.97 189.394H204.545V196.97H196.97V189.394Z" fill="#0B0218"/>
<path d="M204.545 189.394H212.121V196.97H204.545V189.394Z" fill="#0B0218"/>
<path d="M219.697 189.394H227.273V196.97H219.697V189.394Z" fill="#0B0218"/>
<path d="M15.1515 196.97H22.7272V204.545H15.1515V196.97Z" fill="#0B0218"/>
<path d="M30.303 196.97H37.8788V204.545H30.303V196.97Z" fill="#0B0218"/>
<path d="M37.8788 196.97H45.4545V204.545H37.8788V196.97Z" fill="#0B0218"/>
<path d="M45.4545 196.97H53.0303V204.545H45.4545V196.97Z" fill="#0B0218"/>
<path d="M60.606 196.97H68.1818V204.545H60.606V196.97Z" fill="#0B0218"/>
<path d="M75.7575 196.97H83.3333V204.545H75.7575V196.97Z" fill="#0B0218"/>
<path d="M83.3333 196.97H90.9091V204.545H83.3333V196.97Z" fill="#0B0218"/>
<path d="M90.9091 196.97H98.4848V204.545H90.9091V196.97Z" fill="#0B0218"/>
<path d="M113.636 196.97H121.212V204.545H113.636V196.97Z" fill="#0B0218"/>
<path d="M128.788 196.97H136.364V204.545H128.788V196.97Z" fill="#0B0218"/>
<path d="M136.364 196.97H143.939V204.545H136.364V196.97Z" fill="#0B0218"/>
<path d="M159.091 196.97H166.667V204.545H159.091V196.97Z" fill="#0B0218"/>
<path d="M166.667 196.97H174.242V204.545H166.667V196.97Z" fill="#0B0218"/>
<path d="M174.242 196.97H181.818V204.545H174.242V196.97Z" fill="#0B0218"/>
<path d="M181.818 196.97H189.394V204.545H181.818V196.97Z" fill="#0B0218"/>
<path d="M189.394 196.97H196.97V204.545H189.394V196.97Z" fill="#0B0218"/>
<path d="M196.97 196.97H204.545V204.545H196.97V196.97Z" fill="#0B0218"/>
<path d="M219.697 196.97H227.273V204.545H219.697V196.97Z" fill="#0B0218"/>
<path d="M227.273 196.97H234.848V204.545H227.273V196.97Z" fill="#0B0218"/>
<path d="M15.1515 204.545H22.7272V212.121H15.1515V204.545Z" fill="#0B0218"/>
<path d="M30.303 204.545H37.8788V212.121H30.303V204.545Z" fill="#0B0218"/>
<path d="M37.8788 204.545H45.4545V212.121H37.8788V204.545Z" fill="#0B0218"/>
<path d="M45.4545 204.545H53.0303V212.121H45.4545V204.545Z" fill="#0B0218"/>
<path d="M60.606 204.545H68.1818V212.121H60.606V204.545Z" fill="#0B0218"/>
<path d="M90.9091 204.545H98.4848V212.121H90.9091V204.545Z" fill="#0B0218"/>
<path d="M98.4848 204.545H106.061V212.121H98.4848V204.545Z" fill="#0B0218"/>
<path d="M106.061 204.545H113.636V212.121H106.061V204.545Z" fill="#0B0218"/>
<path d="M113.636 204.545H121.212V212.121H113.636V204.545Z" fill="#0B0218"/>
<path d="M121.212 204.545H128.788V212.121H121.212V204.545Z" fill="#0B0218"/>
<path d="M151.515 204.545H159.091V212.121H151.515V204.545Z" fill="#0B0218"/>
<path d="M189.394 204.545H196.97V212.121H189.394V204.545Z" fill="#0B0218"/>
<path d="M204.545 204.545H212.121V212.121H204.545V204.545Z" fill="#0B0218"/>
<path d="M212.121 204.545H219.697V212.121H212.121V204.545Z" fill="#0B0218"/>
<path d="M219.697 204.545H227.273V212.121H219.697V204.545Z" fill="#0B0218"/>
<path d="M15.1515 212.121H22.7272V219.697H15.1515V212.121Z" fill="#0B0218"/>
<path d="M30.303 212.121H37.8788V219.697H30.303V212.121Z" fill="#0B0218"/>
<path d="M37.8788 212.121H45.4545V219.697H37.8788V212.121Z" fill="#0B0218"/>
<path d="M45.4545 212.121H53.0303V219.697H45.4545V212.121Z" fill="#0B0218"/>
<path d="M60.606 212.121H68.1818V219.697H60.606V212.121Z" fill="#0B0218"/>
<path d="M90.9091 212.121H98.4848V219.697H90.9091V212.121Z" fill="#0B0218"/>
<path d="M106.061 212.121H113.636V219.697H106.061V212.121Z" fill="#0B0218"/>
<path d="M113.636 212.121H121.212V219.697H113.636V212.121Z" fill="#0B0218"/>
<path d="M151.515 212.121H159.091V219.697H151.515V212.121Z" fill="#0B0218"/>
<path d="M159.091 212.121H166.667V219.697H159.091V212.121Z" fill="#0B0218"/>
<path d="M166.667 212.121H174.242V219.697H166.667V212.121Z" fill="#0B0218"/>
<path d="M174.242 212.121H181.818V219.697H174.242V212.121Z" fill="#0B0218"/>
<path d="M204.545 212.121H212.121V219.697H204.545V212.121Z" fill="#0B0218"/>
<path d="M212.121 212.121H219.697V219.697H212.121V212.121Z" fill="#0B0218"/>
<path d="M219.697 212.121H227.273V219.697H219.697V212.121Z" fill="#0B0218"/>
<path d="M227.273 212.121H234.848V219.697H227.273V212.121Z" fill="#0B0218"/>
<path d="M15.1515 219.697H22.7272V227.273H15.1515V219.697Z" fill="#0B0218"/>
<path d="M60.606 219.697H68.1818V227.273H60.606V219.697Z" fill="#0B0218"/>
<path d="M98.4848 219.697H106.061V227.273H98.4848V219.697Z" fill="#0B0218"/>
<path d="M106.061 219.697H113.636V227.273H106.061V219.697Z" fill="#0B0218"/>
<path d="M113.636 219.697H121.212V227.273H113.636V219.697Z" fill="#0B0218"/>
<path d="M128.788 219.697H136.364V227.273H128.788V219.697Z" fill="#0B0218"/>
<path d="M166.667 219.697H174.242V227.273H166.667V219.697Z" fill="#0B0218"/>
<path d="M174.242 219.697H181.818V227.273H174.242V219.697Z" fill="#0B0218"/>
<path d="M189.394 219.697H196.97V227.273H189.394V219.697Z" fill="#0B0218"/>
<path d="M204.545 219.697H212.121V227.273H204.545V219.697Z" fill="#0B0218"/>
<path d="M219.697 219.697H227.273V227.273H219.697V219.697Z" fill="#0B0218"/>
<path d="M227.273 219.697H234.848V227.273H227.273V219.697Z" fill="#0B0218"/>
<path d="M15.1515 227.273H22.7272V234.848H15.1515V227.273Z" fill="#0B0218"/>
<path d="M22.7272 227.273H30.303V234.848H22.7272V227.273Z" fill="#0B0218"/>
<path d="M30.303 227.273H37.8788V234.848H30.303V227.273Z" fill="#0B0218"/>
<path d="M37.8788 227.273H45.4545V234.848H37.8788V227.273Z" fill="#0B0218"/>
<path d="M45.4545 227.273H53.0303V234.848H45.4545V227.273Z" fill="#0B0218"/>
<path d="M53.0303 227.273H60.606V234.848H53.0303V227.273Z" fill="#0B0218"/>
<path d="M60.606 227.273H68.1818V234.848H60.606V227.273Z" fill="#0B0218"/>
<path d="M90.9091 227.273H98.4848V234.848H90.9091V227.273Z" fill="#0B0218"/>
<path d="M98.4848 227.273H106.061V234.848H98.4848V227.273Z" fill="#0B0218"/>
<path d="M106.061 227.273H113.636V234.848H106.061V227.273Z" fill="#0B0218"/>
<path d="M159.091 227.273H166.667V234.848H159.091V227.273Z" fill="#0B0218"/>
<path d="M166.667 227.273H174.242V234.848H166.667V227.273Z" fill="#0B0218"/>
<path d="M174.242 227.273H181.818V234.848H174.242V227.273Z" fill="#0B0218"/>
<path d="M196.97 227.273H204.545V234.848H196.97V227.273Z" fill="#0B0218"/>
<path d="M204.545 227.273H212.121V234.848H204.545V227.273Z" fill="#0B0218"/>
<path d="M219.697 227.273H227.273V234.848H219.697V227.273Z" fill="#0B0218"/>
<path d="M22.7272 15.1514H15.1515V22.7271M22.7272 15.1514V22.7271M22.7272 15.1514H30.303M22.7272 22.7271H15.1515M22.7272 22.7271H30.303M22.7272 22.7271V30.3029M15.1515 22.7271V30.3029M30.303 15.1514V22.7271M30.303 15.1514H37.8788M30.303 22.7271H37.8788M37.8788 15.1514V22.7271M37.8788 15.1514H45.4545M37.8788 22.7271H45.4545M45.4545 15.1514V22.7271M45.4545 15.1514H53.0303M45.4545 22.7271H53.0303M53.0303 15.1514V22.7271M53.0303 15.1514H60.606M53.0303 22.7271H60.606M60.606 15.1514V22.7271M60.606 15.1514H68.1818V22.7271M60.606 22.7271H68.1818M60.606 22.7271V30.3029M68.1818 22.7271V30.3029M90.9091 15.1514H83.3333V22.7271M90.9091 15.1514V22.7271M90.9091 15.1514H98.4848V22.7271M90.9091 22.7271H83.3333M90.9091 22.7271H98.4848M90.9091 22.7271V30.3029M83.3333 22.7271H75.7575V30.3029H83.3333M83.3333 22.7271V30.3029M98.4848 22.7271H106.061M98.4848 22.7271V30.3029M159.091 22.7271V15.1514H151.515V22.7271M159.091 22.7271H151.515M159.091 22.7271H166.667M159.091 22.7271V30.3029M151.515 22.7271H143.939V30.3029M151.515 22.7271V30.3029M166.667 22.7271H174.242V15.1514H166.667V22.7271ZM166.667 22.7271V30.3029M189.394 15.1514H181.818V22.7271M189.394 15.1514V22.7271M189.394 15.1514H196.97M189.394 22.7271H181.818M189.394 22.7271H196.97M189.394 22.7271V30.3029M181.818 22.7271V30.3029M196.97 15.1514V22.7271M196.97 15.1514H204.545M196.97 22.7271H204.545M204.545 15.1514V22.7271M204.545 15.1514H212.121M204.545 22.7271H212.121M212.121 15.1514V22.7271M212.121 15.1514H219.697M212.121 22.7271H219.697M219.697 15.1514V22.7271M219.697 15.1514H227.273M219.697 22.7271H227.273M227.273 15.1514V22.7271M227.273 15.1514H234.848V22.7271M227.273 22.7271H234.848M227.273 22.7271V30.3029M234.848 22.7271V30.3029M22.7272 30.3029H15.1515M22.7272 30.3029V37.8786M15.1515 30.3029V37.8786M68.1818 30.3029H60.606M68.1818 30.3029V37.8786M60.606 30.3029V37.8786M83.3333 30.3029H90.9091M90.9091 30.3029H98.4848M90.9091 30.3029V37.8786H98.4848M106.061 22.7271V30.3029M106.061 22.7271H113.636M106.061 30.3029H98.4848M106.061 30.3029H113.636M106.061 30.3029V37.8786M98.4848 30.3029V37.8786M113.636 22.7271V30.3029M113.636 22.7271H121.212M113.636 30.3029H121.212M121.212 22.7271V30.3029M121.212 22.7271H128.788M121.212 30.3029H128.788M121.212 30.3029V37.8786M128.788 22.7271V30.3029M128.788 22.7271H136.364V30.3029M128.788 30.3029H136.364M128.788 30.3029V37.8786M136.364 30.3029V37.8786M136.364 30.3029H143.939M151.515 30.3029H143.939M151.515 30.3029V37.8786M151.515 30.3029H159.091M143.939 30.3029V37.8786M166.667 30.3029H159.091M166.667 30.3029V37.8786M166.667 30.3029H174.242V37.8786M159.091 30.3029V37.8786M189.394 30.3029H181.818M189.394 30.3029V37.8786M181.818 30.3029V37.8786M234.848 30.3029H227.273M234.848 30.3029V37.8786M227.273 30.3029V37.8786M22.7272 37.8786H15.1515M22.7272 37.8786V45.4544M15.1515 37.8786V45.4544M37.8788 30.3029H30.303V37.8786M37.8788 30.3029V37.8786M37.8788 30.3029H45.4545M37.8788 37.8786H30.303M37.8788 37.8786H45.4545M37.8788 37.8786V45.4544M30.303 37.8786V45.4544M45.4545 30.3029V37.8786M45.4545 30.3029H53.0303V37.8786M45.4545 37.8786H53.0303M45.4545 37.8786V45.4544M53.0303 37.8786V45.4544M68.1818 37.8786H60.606M68.1818 37.8786V45.4544M60.606 37.8786V45.4544M98.4848 37.8786H106.061M98.4848 37.8786V45.4544M106.061 37.8786V45.4544M128.788 37.8786H121.212M128.788 37.8786H136.364M121.212 37.8786H113.636V45.4544M121.212 37.8786V45.4544M136.364 37.8786H143.939M143.939 37.8786H151.515M151.515 37.8786H159.091M159.091 37.8786H166.667M159.091 37.8786V45.4544M166.667 37.8786H174.242M166.667 37.8786V45.4544M174.242 37.8786V45.4544H166.667M189.394 37.8786H181.818M189.394 37.8786V45.4544M181.818 37.8786V45.4544M204.545 30.3029H196.97V37.8786M204.545 30.3029V37.8786M204.545 30.3029H212.121M204.545 37.8786H196.97M204.545 37.8786H212.121M204.545 37.8786V45.4544M196.97 37.8786V45.4544M212.121 30.3029V37.8786M212.121 30.3029H219.697V37.8786M212.121 37.8786H219.697M212.121 37.8786V45.4544M219.697 37.8786V45.4544M234.848 37.8786H227.273M234.848 37.8786V45.4544M227.273 37.8786V45.4544M22.7272 45.4544H15.1515M22.7272 45.4544V53.0302M15.1515 45.4544V53.0302M37.8788 45.4544H30.303M37.8788 45.4544H45.4545M37.8788 45.4544V53.0302M30.303 45.4544V53.0302H37.8788M45.4545 45.4544H53.0303M45.4545 45.4544V53.0302M53.0303 45.4544V53.0302H45.4545M68.1818 45.4544H60.606M68.1818 45.4544V53.0302M60.606 45.4544V53.0302M106.061 45.4544H98.4848M106.061 45.4544V53.0302M106.061 45.4544H113.636M98.4848 45.4544V53.0302M121.212 45.4544H113.636M121.212 45.4544V53.0302M113.636 45.4544V53.0302M166.667 45.4544H159.091M159.091 45.4544H151.515M159.091 45.4544V53.0302M189.394 45.4544H181.818M189.394 45.4544V53.0302M181.818 45.4544V53.0302M204.545 45.4544H196.97M204.545 45.4544H212.121M204.545 45.4544V53.0302M196.97 45.4544V53.0302H204.545M212.121 45.4544H219.697M212.121 45.4544V53.0302M219.697 45.4544V53.0302H212.121M234.848 45.4544H227.273M234.848 45.4544V53.0302M227.273 45.4544V53.0302M22.7272 53.0302H15.1515M22.7272 53.0302V60.6059M15.1515 53.0302V60.6059M37.8788 53.0302H45.4545M68.1818 53.0302H60.606M68.1818 53.0302V60.6059M60.606 53.0302V60.6059M90.9091 53.0302V45.4544H83.3333V53.0302M90.9091 53.0302H83.3333M90.9091 53.0302V60.6059M90.9091 53.0302H98.4848M83.3333 53.0302H75.7575V60.6059M83.3333 53.0302V60.6059M106.061 53.0302H98.4848M106.061 53.0302H113.636M106.061 53.0302V60.6059M98.4848 53.0302V60.6059M113.636 53.0302H121.212M113.636 53.0302V60.6059M121.212 53.0302V60.6059M143.939 45.4544H136.364V53.0302M143.939 45.4544V53.0302M143.939 45.4544H151.515M143.939 53.0302H136.364M143.939 53.0302H151.515M143.939 53.0302V60.6059M136.364 53.0302V60.6059M151.515 45.4544V53.0302M151.515 53.0302H159.091M151.515 53.0302V60.6059M159.091 53.0302H166.667V60.6059M159.091 53.0302V60.6059M189.394 53.0302H181.818M189.394 53.0302V60.6059M181.818 53.0302V60.6059M204.545 53.0302H212.121M234.848 53.0302H227.273M234.848 53.0302V60.6059M227.273 53.0302V60.6059M22.7272 60.6059H15.1515M22.7272 60.6059V68.1817M22.7272 60.6059H30.303M15.1515 60.6059V68.1817H22.7272M68.1818 60.6059H60.606M68.1818 60.6059V68.1817H60.606M60.606 60.6059H53.0303M60.606 60.6059V68.1817M83.3333 60.6059H75.7575M83.3333 60.6059H90.9091M83.3333 60.6059V68.1817M75.7575 60.6059V68.1817M90.9091 60.6059H98.4848M90.9091 60.6059V68.1817M98.4848 60.6059V68.1817M113.636 60.6059H106.061M113.636 60.6059H121.212M113.636 60.6059V68.1817H106.061M106.061 60.6059V68.1817M121.212 60.6059H128.788V68.1817M121.212 60.6059V68.1817M143.939 60.6059H136.364M143.939 60.6059H151.515M143.939 60.6059V68.1817M136.364 60.6059V68.1817M151.515 60.6059H159.091M151.515 60.6059V68.1817M166.667 60.6059H159.091M166.667 60.6059H174.242V68.1817M166.667 60.6059V68.1817M159.091 60.6059V68.1817M189.394 60.6059H181.818M189.394 60.6059V68.1817M189.394 60.6059H196.97M181.818 60.6059V68.1817H189.394M234.848 60.6059H227.273M234.848 60.6059V68.1817H227.273M227.273 60.6059H219.697M227.273 60.6059V68.1817M22.7272 68.1817H30.303M30.303 60.6059V68.1817M30.303 60.6059H37.8788M30.303 68.1817H37.8788M37.8788 60.6059V68.1817M37.8788 60.6059H45.4545M37.8788 68.1817H45.4545M45.4545 60.6059V68.1817M45.4545 60.6059H53.0303M45.4545 68.1817H53.0303M53.0303 60.6059V68.1817M53.0303 68.1817H60.606M83.3333 68.1817H75.7575M83.3333 68.1817V75.7574H75.7575M75.7575 68.1817V75.7574M98.4848 68.1817H90.9091M98.4848 68.1817V75.7574M98.4848 68.1817H106.061M90.9091 68.1817V75.7574M106.061 68.1817V75.7574M128.788 68.1817H121.212M128.788 68.1817V75.7574M128.788 68.1817H136.364M121.212 68.1817V75.7574M143.939 68.1817H136.364M143.939 68.1817H151.515M143.939 68.1817V75.7574M136.364 68.1817V75.7574M159.091 68.1817H151.515M159.091 68.1817V75.7574M159.091 68.1817H166.667M151.515 68.1817V75.7574M174.242 68.1817H166.667M174.242 68.1817V75.7574M166.667 68.1817V75.7574M189.394 68.1817H196.97M196.97 60.6059V68.1817M196.97 60.6059H204.545M196.97 68.1817H204.545M204.545 60.6059V68.1817M204.545 60.6059H212.121M204.545 68.1817H212.121M212.121 60.6059V68.1817M212.121 60.6059H219.697M212.121 68.1817H219.697M219.697 60.6059V68.1817M219.697 68.1817H227.273M75.7575 75.7574H68.1818M75.7575 75.7574V83.3332M98.4848 75.7574H90.9091M98.4848 75.7574H106.061M98.4848 75.7574V83.3332M90.9091 75.7574V83.3332M106.061 75.7574V83.3332M128.788 75.7574H121.212M128.788 75.7574H136.364M128.788 75.7574V83.3332M121.212 75.7574H113.636V83.3332H121.212M121.212 75.7574V83.3332M136.364 75.7574V83.3332M136.364 75.7574H143.939M151.515 75.7574H143.939M151.515 75.7574H159.091M151.515 75.7574V83.3332M143.939 75.7574V83.3332H136.364M159.091 75.7574H166.667M159.091 75.7574V83.3332M166.667 75.7574H174.242M166.667 75.7574V83.3332M174.242 75.7574V83.3332H166.667M53.0303 75.7574H45.4545V83.3332M53.0303 75.7574V83.3332M53.0303 75.7574H60.606M53.0303 83.3332H45.4545M53.0303 83.3332H60.606M53.0303 83.3332V90.9089M45.4545 83.3332H37.8788M45.4545 83.3332V90.9089H37.8788M60.606 75.7574V83.3332M60.606 75.7574H68.1818M60.606 83.3332H68.1818M60.606 83.3332V90.9089M68.1818 75.7574V83.3332M68.1818 83.3332H75.7575M68.1818 83.3332V90.9089M75.7575 83.3332V90.9089M75.7575 83.3332H83.3333V90.9089M98.4848 83.3332H90.9091M98.4848 83.3332H106.061M98.4848 83.3332V90.9089M90.9091 83.3332V90.9089M106.061 83.3332V90.9089H98.4848M121.212 83.3332H128.788M121.212 83.3332V90.9089H128.788M128.788 83.3332H136.364M128.788 83.3332V90.9089M136.364 83.3332V90.9089H128.788M159.091 83.3332H151.515M159.091 83.3332H166.667M159.091 83.3332V90.9089M151.515 83.3332V90.9089M189.394 75.7574H181.818V83.3332M189.394 75.7574V83.3332M189.394 75.7574H196.97V83.3332M189.394 83.3332H181.818M189.394 83.3332H196.97M189.394 83.3332V90.9089M181.818 83.3332V90.9089M196.97 83.3332V90.9089M196.97 83.3332H204.545M227.273 83.3332V75.7574H219.697V83.3332M227.273 83.3332H219.697M227.273 83.3332V90.9089M227.273 83.3332H234.848V90.9089M219.697 83.3332H212.121M219.697 83.3332V90.9089M37.8788 83.3332H30.303V90.9089M37.8788 83.3332V90.9089M37.8788 90.9089H30.303M30.303 90.9089H22.7272M30.303 90.9089V98.4847M60.606 90.9089H53.0303M60.606 90.9089V98.4847M60.606 90.9089H68.1818M53.0303 90.9089V98.4847M75.7575 90.9089H68.1818M75.7575 90.9089H83.3333M75.7575 90.9089V98.4847H68.1818M68.1818 90.9089V98.4847M83.3333 90.9089H90.9091M83.3333 90.9089V98.4847M98.4848 90.9089H90.9091M90.9091 90.9089V98.4847M159.091 90.9089H151.515M159.091 90.9089V98.4847M151.515 90.9089H143.939V98.4847M151.515 90.9089V98.4847M189.394 90.9089H181.818M189.394 90.9089H196.97M181.818 90.9089H174.242M181.818 90.9089V98.4847M196.97 90.9089H204.545M204.545 83.3332V90.9089M204.545 83.3332H212.121M204.545 90.9089H212.121M212.121 83.3332V90.9089M212.121 90.9089H219.697M212.121 90.9089V98.4847M219.697 90.9089H227.273M219.697 90.9089V98.4847M227.273 90.9089H234.848M227.273 90.9089V98.4847M234.848 90.9089V98.4847M22.7272 90.9089H15.1515V98.4847H22.7272M22.7272 90.9089V98.4847M22.7272 98.4847H30.303M22.7272 98.4847V106.06M30.303 98.4847V106.06M30.303 98.4847H37.8788M60.606 98.4847H53.0303M60.606 98.4847H68.1818M60.606 98.4847V106.06M53.0303 98.4847H45.4545M53.0303 98.4847V106.06M90.9091 98.4847H83.3333M90.9091 98.4847V106.06M83.3333 98.4847V106.06M151.515 98.4847H143.939M151.515 98.4847H159.091M151.515 98.4847V106.06M143.939 98.4847V106.06M159.091 98.4847V106.06M174.242 90.9089H166.667V98.4847H174.242M174.242 90.9089V98.4847M174.242 98.4847H181.818M174.242 98.4847V106.06H181.818V98.4847M219.697 98.4847H212.121M219.697 98.4847H227.273M219.697 98.4847V106.06H227.273M212.121 98.4847H204.545M212.121 98.4847V106.06M234.848 98.4847H227.273M234.848 98.4847V106.06M227.273 98.4847V106.06M30.303 106.06H22.7272M30.303 106.06H37.8788M30.303 106.06V113.636M22.7272 106.06V113.636M37.8788 98.4847V106.06M37.8788 98.4847H45.4545M37.8788 106.06H45.4545M37.8788 106.06V113.636M45.4545 98.4847V106.06M45.4545 106.06H53.0303M45.4545 106.06V113.636M53.0303 106.06H60.606M53.0303 106.06V113.636M60.606 106.06V113.636M60.606 106.06H68.1818M90.9091 106.06H83.3333M90.9091 106.06H98.4848M90.9091 106.06V113.636H98.4848M83.3333 106.06H75.7575M83.3333 106.06V113.636H75.7575M106.061 98.4847H98.4848V106.06M106.061 98.4847V106.06M106.061 98.4847H113.636V106.06M106.061 106.06H98.4848M106.061 106.06H113.636M106.061 106.06V113.636M98.4848 106.06V113.636M113.636 106.06V113.636H106.061M128.788 106.06V98.4847H121.212V106.06M128.788 106.06H121.212M128.788 106.06V113.636M121.212 106.06V113.636M151.515 106.06H143.939M151.515 106.06H159.091M151.515 106.06V113.636H159.091V106.06M143.939 106.06H136.364V113.636M143.939 106.06V113.636H136.364M196.97 98.4847H189.394V106.06M196.97 98.4847V106.06M196.97 98.4847H204.545M196.97 106.06H189.394M196.97 106.06H204.545M196.97 106.06V113.636M189.394 106.06V113.636M204.545 98.4847V106.06M204.545 106.06H212.121M204.545 106.06V113.636M212.121 106.06V113.636M227.273 106.06H234.848M227.273 106.06V113.636M234.848 106.06V113.636M30.303 113.636H22.7272M30.303 113.636H37.8788M30.303 113.636V121.212H22.7272M22.7272 113.636H15.1515V121.212H22.7272M22.7272 113.636V121.212M37.8788 113.636H45.4545M37.8788 113.636V121.212H45.4545V113.636M53.0303 113.636H45.4545M53.0303 113.636H60.606M60.606 113.636H68.1818M68.1818 106.06V113.636M68.1818 106.06H75.7575M68.1818 113.636H75.7575M75.7575 106.06V113.636M98.4848 113.636H106.061M128.788 113.636H121.212M128.788 113.636V121.212M128.788 113.636H136.364M121.212 113.636V121.212M136.364 113.636V121.212H128.788M196.97 113.636H189.394M196.97 113.636H204.545M196.97 113.636V121.212M189.394 113.636H181.818V121.212M189.394 113.636V121.212M212.121 113.636H204.545M212.121 113.636H219.697M212.121 113.636V121.212H219.697M204.545 113.636V121.212M234.848 113.636H227.273M234.848 113.636V121.212M227.273 113.636H219.697M227.273 113.636V121.212M128.788 121.212H121.212M128.788 121.212V128.788H121.212V121.212M189.394 121.212H181.818M189.394 121.212V128.788M181.818 121.212V128.788M204.545 121.212H196.97M204.545 121.212V128.788M196.97 121.212V128.788M219.697 113.636V121.212M219.697 121.212H227.273M227.273 121.212H234.848M227.273 121.212V128.788M234.848 121.212V128.788H227.273M68.1818 121.212H60.606V128.788M68.1818 121.212V128.788M68.1818 121.212H75.7575M68.1818 128.788H60.606M68.1818 128.788H75.7575M68.1818 128.788V136.363M60.606 128.788H53.0303M60.606 128.788V136.363M75.7575 121.212V128.788M75.7575 121.212H83.3333M75.7575 128.788H83.3333M75.7575 128.788V136.363H68.1818M83.3333 121.212V128.788M83.3333 121.212H90.9091V128.788M83.3333 128.788H90.9091M90.9091 128.788H98.4848M90.9091 128.788V136.363M159.091 128.788V121.212H151.515V128.788H159.091ZM159.091 128.788H166.667M159.091 128.788V136.363M174.242 128.788V121.212H166.667V128.788M174.242 128.788H166.667M174.242 128.788V136.363M174.242 128.788H181.818M166.667 128.788V136.363M189.394 128.788H181.818M189.394 128.788H196.97M189.394 128.788V136.363H196.97V128.788M181.818 128.788V136.363M204.545 128.788H196.97M204.545 128.788H212.121V136.363H204.545V128.788ZM227.273 128.788H219.697V136.363M227.273 128.788V136.363M22.7272 128.788H15.1515V136.363M22.7272 128.788V136.363M22.7272 128.788H30.303V136.363M22.7272 136.363H15.1515M22.7272 136.363H30.303M22.7272 136.363V143.939M15.1515 136.363V143.939M30.303 136.363H37.8788M30.303 136.363V143.939H37.8788M45.4545 128.788H37.8788V136.363M45.4545 128.788V136.363M45.4545 128.788H53.0303M45.4545 136.363H37.8788M45.4545 136.363H53.0303M45.4545 136.363V143.939M37.8788 136.363V143.939M53.0303 128.788V136.363M53.0303 136.363H60.606M53.0303 136.363V143.939M60.606 136.363H68.1818M60.606 136.363V143.939M68.1818 136.363V143.939M98.4848 128.788V136.363M98.4848 128.788H106.061V136.363M98.4848 136.363H90.9091M98.4848 136.363H106.061M98.4848 136.363V143.939M90.9091 136.363V143.939H98.4848M106.061 136.363V143.939M106.061 136.363H113.636M143.939 136.363V128.788H136.364V136.363M143.939 136.363H136.364M143.939 136.363V143.939M143.939 136.363H151.515V143.939M136.364 136.363H128.788V143.939H136.364M136.364 136.363V143.939M166.667 136.363H159.091M166.667 136.363H174.242M166.667 136.363V143.939M159.091 136.363V143.939M174.242 136.363H181.818M174.242 136.363V143.939M181.818 136.363V143.939M227.273 136.363H219.697M227.273 136.363V143.939M219.697 136.363V143.939M22.7272 143.939H15.1515M22.7272 143.939V151.515H15.1515V143.939M37.8788 143.939H45.4545M37.8788 143.939V151.515M53.0303 143.939H45.4545M53.0303 143.939H60.606M53.0303 143.939V151.515H60.606M45.4545 143.939V151.515M68.1818 143.939H60.606M68.1818 143.939H75.7575M68.1818 143.939V151.515M60.606 143.939V151.515M98.4848 143.939H106.061M98.4848 143.939V151.515M106.061 143.939H113.636M106.061 143.939V151.515M113.636 136.363V143.939M113.636 136.363H121.212V143.939H113.636M113.636 143.939V151.515H106.061M136.364 143.939H143.939M143.939 143.939H151.515M151.515 143.939H159.091M151.515 143.939V151.515M166.667 143.939H159.091M166.667 143.939H174.242M159.091 143.939V151.515H151.515M174.242 143.939H181.818M174.242 143.939V151.515H181.818M181.818 143.939V151.515M181.818 143.939H189.394M227.273 143.939H219.697M227.273 143.939H234.848V151.515M227.273 143.939V151.515M219.697 143.939H212.121V151.515M219.697 143.939V151.515H212.121M45.4545 151.515H37.8788M45.4545 151.515V159.091M37.8788 151.515V159.091M60.606 151.515H68.1818M60.606 151.515V159.091H68.1818M75.7575 143.939V151.515M75.7575 143.939H83.3333V151.515H75.7575M75.7575 151.515H68.1818M75.7575 151.515V159.091M68.1818 151.515V159.091M106.061 151.515H98.4848M98.4848 151.515H90.9091V159.091M98.4848 151.515V159.091M151.515 151.515H143.939M151.515 151.515V159.091M181.818 151.515H189.394M189.394 143.939V151.515M189.394 143.939H196.97M189.394 151.515H196.97M189.394 151.515V159.091M196.97 143.939V151.515M196.97 143.939H204.545V151.515M196.97 151.515H204.545M196.97 151.515V159.091M204.545 151.515H212.121M204.545 151.515V159.091M212.121 151.515V159.091M234.848 151.515H227.273M234.848 151.515V159.091M227.273 151.515V159.091M45.4545 159.091H37.8788M45.4545 159.091V166.667M37.8788 159.091H30.303V166.667M37.8788 159.091V166.667M68.1818 159.091H75.7575M68.1818 159.091V166.667M75.7575 159.091V166.667M75.7575 159.091H83.3333M98.4848 159.091H90.9091M98.4848 159.091V166.667M90.9091 159.091H83.3333M90.9091 159.091V166.667M128.788 159.091V151.515H121.212V159.091M128.788 159.091H121.212M128.788 159.091V166.667M121.212 159.091H113.636M121.212 159.091V166.667M143.939 151.515H136.364V159.091M143.939 151.515V159.091M143.939 159.091H136.364M143.939 159.091H151.515M143.939 159.091V166.667M136.364 159.091V166.667H143.939M151.515 159.091V166.667M196.97 159.091H189.394M196.97 159.091V166.667M196.97 159.091H204.545M189.394 159.091V166.667M212.121 159.091H204.545M212.121 159.091V166.667H204.545M204.545 159.091V166.667M234.848 159.091H227.273M234.848 159.091V166.667M227.273 159.091H219.697V166.667H227.273M227.273 159.091V166.667M37.8788 166.667H30.303M37.8788 166.667H45.4545M30.303 166.667H22.7272M30.303 166.667V174.242H22.7272M45.4545 166.667H53.0303V174.242H45.4545V166.667ZM75.7575 166.667H68.1818M75.7575 166.667H83.3333M75.7575 166.667V174.242M68.1818 166.667H60.606V174.242H68.1818M68.1818 166.667V174.242M83.3333 159.091V166.667M83.3333 166.667H90.9091M90.9091 166.667H98.4848M98.4848 166.667H106.061M98.4848 166.667V174.242M113.636 159.091H106.061V166.667M113.636 159.091V166.667M113.636 166.667H106.061M113.636 166.667H121.212M113.636 166.667V174.242M106.061 166.667V174.242M121.212 166.667H128.788M121.212 166.667V174.242M128.788 166.667V174.242H121.212M143.939 166.667H151.515M151.515 166.667H159.091M151.515 166.667V174.242M166.667 159.091H159.091V166.667M166.667 159.091V166.667M166.667 159.091H174.242V166.667M166.667 166.667H159.091M166.667 166.667H174.242M166.667 166.667V174.242M159.091 166.667V174.242M174.242 166.667V174.242M174.242 166.667H181.818M196.97 166.667H189.394M196.97 166.667H204.545M196.97 166.667V174.242M189.394 166.667H181.818M189.394 166.667V174.242M204.545 166.667V174.242M227.273 166.667H234.848M227.273 166.667V174.242M234.848 166.667V174.242M22.7272 166.667H15.1515V174.242H22.7272M22.7272 166.667V174.242M68.1818 174.242H75.7575M75.7575 174.242H83.3333M75.7575 174.242V181.818M106.061 174.242H98.4848M106.061 174.242V181.818M106.061 174.242H113.636M98.4848 174.242V181.818M121.212 174.242H113.636M121.212 174.242V181.818M113.636 174.242V181.818M159.091 174.242H151.515M159.091 174.242V181.818M151.515 174.242V181.818M174.242 174.242H166.667M174.242 174.242H181.818M174.242 174.242V181.818M166.667 174.242V181.818M181.818 166.667V174.242M181.818 174.242H189.394M189.394 174.242H196.97M196.97 174.242H204.545M196.97 174.242V181.818M204.545 174.242V181.818M234.848 174.242H227.273M234.848 174.242V181.818M227.273 174.242V181.818M83.3333 174.242V181.818M83.3333 174.242H90.9091V181.818M83.3333 181.818H75.7575M83.3333 181.818H90.9091M83.3333 181.818V189.394M75.7575 181.818V189.394M90.9091 181.818H98.4848M90.9091 181.818V189.394M106.061 181.818H98.4848M106.061 181.818H113.636M98.4848 181.818V189.394M113.636 181.818H121.212M113.636 181.818V189.394M121.212 181.818V189.394M159.091 181.818H151.515M159.091 181.818V189.394M159.091 181.818H166.667M151.515 181.818V189.394M174.242 181.818H166.667M174.242 181.818V189.394M166.667 181.818V189.394M204.545 181.818H196.97M204.545 181.818V189.394M196.97 181.818V189.394M234.848 181.818H227.273M234.848 181.818V189.394H227.273M227.273 181.818V189.394M22.7272 181.818H15.1515V189.394M22.7272 181.818V189.394M22.7272 181.818H30.303M22.7272 189.394H15.1515M22.7272 189.394H30.303M22.7272 189.394V196.97M15.1515 189.394V196.97M30.303 181.818V189.394M30.303 181.818H37.8788M30.303 189.394H37.8788M37.8788 181.818V189.394M37.8788 181.818H45.4545M37.8788 189.394H45.4545M45.4545 181.818V189.394M45.4545 181.818H53.0303M45.4545 189.394H53.0303M53.0303 181.818V189.394M53.0303 181.818H60.606M53.0303 189.394H60.606M60.606 181.818V189.394M60.606 181.818H68.1818V189.394M60.606 189.394H68.1818M60.606 189.394V196.97M68.1818 189.394V196.97M83.3333 189.394H75.7575M83.3333 189.394V196.97M83.3333 189.394H90.9091M75.7575 189.394V196.97M98.4848 189.394H90.9091M98.4848 189.394V196.97M90.9091 189.394V196.97M121.212 189.394H113.636M121.212 189.394V196.97M113.636 189.394H106.061V196.97H113.636M113.636 189.394V196.97M136.364 181.818H128.788V189.394M136.364 181.818V189.394M136.364 181.818H143.939V189.394M136.364 189.394H128.788M136.364 189.394H143.939M136.364 189.394V196.97M128.788 189.394V196.97M143.939 189.394V196.97M159.091 189.394H151.515M159.091 189.394H166.667M159.091 189.394V196.97M151.515 189.394V196.97H159.091M166.667 189.394H174.242M166.667 189.394V196.97M174.242 189.394V196.97M204.545 189.394H196.97M204.545 189.394V196.97M204.545 189.394H212.121V196.97H204.545M196.97 189.394V196.97M227.273 189.394H219.697V196.97M227.273 189.394V196.97M22.7272 196.97H15.1515M22.7272 196.97V204.545M15.1515 196.97V204.545M68.1818 196.97H60.606M68.1818 196.97V204.545M60.606 196.97V204.545M83.3333 196.97H75.7575M83.3333 196.97H90.9091M83.3333 196.97V204.545M75.7575 196.97V204.545H83.3333M90.9091 196.97H98.4848M90.9091 196.97V204.545M98.4848 196.97V204.545M113.636 196.97H121.212M113.636 196.97V204.545M121.212 196.97V204.545M136.364 196.97H128.788M136.364 196.97H143.939M136.364 196.97V204.545M128.788 196.97V204.545M143.939 196.97V204.545H136.364M159.091 196.97H166.667M159.091 196.97V204.545M166.667 196.97H174.242M166.667 196.97V204.545M174.242 196.97V204.545M174.242 196.97H181.818M204.545 196.97H196.97M204.545 196.97V204.545M196.97 196.97H189.394M196.97 196.97V204.545M227.273 196.97H219.697M227.273 196.97V204.545M227.273 196.97H234.848V204.545H227.273M219.697 196.97V204.545M22.7272 204.545H15.1515M22.7272 204.545V212.121M15.1515 204.545V212.121M37.8788 196.97H30.303V204.545M37.8788 196.97V204.545M37.8788 196.97H45.4545M37.8788 204.545H30.303M37.8788 204.545H45.4545M37.8788 204.545V212.121M30.303 204.545V212.121M45.4545 196.97V204.545M45.4545 196.97H53.0303V204.545M45.4545 204.545H53.0303M45.4545 204.545V212.121M53.0303 204.545V212.121M68.1818 204.545H60.606M68.1818 204.545V212.121M60.606 204.545V212.121M83.3333 204.545H90.9091M90.9091 204.545H98.4848M90.9091 204.545V212.121M98.4848 204.545V212.121M98.4848 204.545H106.061M121.212 204.545H113.636M121.212 204.545V212.121M121.212 204.545H128.788M113.636 204.545H106.061M113.636 204.545V212.121M136.364 204.545H128.788M128.788 204.545V212.121H121.212M166.667 204.545H159.091M166.667 204.545H174.242M159.091 204.545H151.515V212.121M159.091 204.545V212.121M174.242 204.545H181.818M181.818 196.97V204.545M181.818 196.97H189.394M181.818 204.545H189.394M189.394 196.97V204.545M189.394 204.545H196.97M189.394 204.545V212.121H196.97V204.545M196.97 204.545H204.545M204.545 204.545H212.121M204.545 204.545V212.121M227.273 204.545H219.697M227.273 204.545V212.121M219.697 204.545H212.121M219.697 204.545V212.121M22.7272 212.121H15.1515M22.7272 212.121V219.697M15.1515 212.121V219.697M37.8788 212.121H30.303M37.8788 212.121H45.4545M37.8788 212.121V219.697M30.303 212.121V219.697H37.8788M45.4545 212.121H53.0303M45.4545 212.121V219.697M53.0303 212.121V219.697H45.4545M68.1818 212.121H60.606M68.1818 212.121V219.697M60.606 212.121V219.697M98.4848 212.121H90.9091M98.4848 212.121H106.061M98.4848 212.121V219.697M90.9091 212.121V219.697H98.4848M106.061 204.545V212.121M106.061 212.121H113.636M106.061 212.121V219.697M113.636 212.121H121.212M113.636 212.121V219.697M121.212 212.121V219.697M159.091 212.121H151.515M159.091 212.121V219.697M159.091 212.121H166.667M151.515 212.121V219.697H159.091M212.121 204.545V212.121M212.121 212.121H204.545M212.121 212.121H219.697M212.121 212.121V219.697M204.545 212.121V219.697M219.697 212.121H227.273M219.697 212.121V219.697M227.273 212.121V219.697M227.273 212.121H234.848V219.697M22.7272 219.697H15.1515M22.7272 219.697V227.273M15.1515 219.697V227.273M37.8788 219.697H45.4545M68.1818 219.697H60.606M68.1818 219.697V227.273M60.606 219.697V227.273M98.4848 219.697H106.061M98.4848 219.697V227.273M113.636 219.697H106.061M113.636 219.697H121.212M113.636 219.697V227.273M106.061 219.697V227.273M121.212 219.697V227.273H113.636M159.091 219.697H166.667M166.667 212.121V219.697M166.667 212.121H174.242M166.667 219.697H174.242M166.667 219.697V227.273M174.242 212.121V219.697M174.242 212.121H181.818V219.697M174.242 219.697H181.818M174.242 219.697V227.273M181.818 219.697V227.273M212.121 219.697H204.545M212.121 219.697H219.697M212.121 219.697V227.273M204.545 219.697V227.273M219.697 219.697H227.273M219.697 219.697V227.273M227.273 219.697H234.848M227.273 219.697V227.273M234.848 219.697V227.273H227.273M22.7272 227.273H15.1515M22.7272 227.273V234.848M22.7272 227.273H30.303M15.1515 227.273V234.848H22.7272M68.1818 227.273H60.606M68.1818 227.273V234.848H60.606M60.606 227.273H53.0303M60.606 227.273V234.848M106.061 227.273H98.4848M106.061 227.273H113.636M106.061 227.273V234.848M98.4848 227.273H90.9091V234.848H98.4848M98.4848 227.273V234.848M113.636 227.273V234.848H106.061M174.242 227.273H166.667M174.242 227.273H181.818M174.242 227.273V234.848M166.667 227.273H159.091V234.848H166.667M166.667 227.273V234.848M181.818 227.273V234.848H174.242M196.97 227.273V219.697H189.394V227.273H196.97ZM196.97 227.273H204.545M196.97 227.273V234.848H204.545M212.121 227.273H204.545M212.121 227.273V234.848H204.545M204.545 227.273V234.848M227.273 227.273H219.697M227.273 227.273V234.848H219.697V227.273M22.7272 234.848H30.303M30.303 227.273V234.848M30.303 227.273H37.8788M30.303 234.848H37.8788M37.8788 227.273V234.848M37.8788 227.273H45.4545M37.8788 234.848H45.4545M45.4545 227.273V234.848M45.4545 227.273H53.0303M45.4545 234.848H53.0303M53.0303 227.273V234.848M53.0303 234.848H60.606M98.4848 234.848H106.061M166.667 234.848H174.242M212.121 174.242H219.697V181.818H212.121V174.242ZM181.818 181.818H189.394V189.394H181.818V181.818ZM128.788 219.697H136.364V227.273H128.788V219.697Z" stroke="#0B0218" stroke-width="0.5"/>
</svg>
