<svg width="34" height="33" viewBox="0 0 34 33" fill="none" xmlns="http://www.w3.org/2000/svg">
<path d="M29.0719 9.12358C29.0719 11.346 27.2703 13.1476 25.0479 13.1476C22.8255 13.1476 21.0239 11.346 21.0239 9.12358C21.0239 6.90121 22.8255 5.09961 25.0479 5.09961C27.2703 5.09961 29.0719 6.90121 29.0719 9.12358Z" stroke="white" stroke-width="1.93151"/>
<path d="M12.976 16.5005C12.976 18.723 11.1744 20.5245 8.95207 20.5245C6.7297 20.5245 4.9281 18.723 4.9281 16.5005C4.9281 14.2781 6.7297 12.4766 8.95207 12.4766C11.1744 12.4766 12.976 14.2781 12.976 16.5005Z" stroke="white" stroke-width="1.93151"/>
<path d="M29.0719 23.8775C29.0719 26.0999 27.2703 27.9015 25.0479 27.9015C22.8255 27.9015 21.0239 26.0999 21.0239 23.8775C21.0239 21.655 22.8255 19.8535 25.0479 19.8535C27.2703 19.8535 29.0719 21.655 29.0719 23.8775Z" stroke="white" stroke-width="1.93151"/>
<path d="M12.6118 14.8221L21.3304 10.7988M12.6118 18.1761L21.3304 22.1994" stroke="white" stroke-width="1.93151"/>
</svg>
