<svg width="33" height="32" viewBox="0 0 33 32" fill="none" xmlns="http://www.w3.org/2000/svg">
<path d="M10.2681 24.1223C9.83168 24.4886 9.45374 24.6702 9.06018 24.6663C8.1533 24.6571 7.39787 23.7295 5.88703 21.8745L3.86707 19.3941C3.03522 18.3727 2.93344 16.8519 3.62016 15.7043C4.40459 14.3935 5.90898 14.0263 7.08142 14.6841M15.0629 11.333C16.1177 10.2208 17.2433 9.10928 18.4711 7.98206C19.0633 7.43825 19.8016 7.24564 20.5 7.36876" stroke="#0B0218" stroke-width="2" stroke-linecap="round"/>
<path d="M19.3076 21.7477C22.3208 18.2551 25.2296 15.8858 28.8835 12.5306C29.9771 11.5263 30.146 9.76594 29.288 8.51874C28.3763 7.19323 26.6436 6.9283 25.4709 7.98206C22.124 10.9895 19.5201 13.8851 17.0501 16.9802C16.9205 17.1426 16.8557 17.2238 16.7884 17.2695C16.6179 17.3854 16.4047 17.3867 16.2331 17.2727C16.1653 17.2278 16.1004 17.1481 15.9705 16.9889L14.6544 15.3745C13.4535 13.9014 11.2994 14.0645 10.2967 15.7043C9.59505 16.8519 9.69904 18.3727 10.549 19.3941L12.6129 21.8745C14.1567 23.7295 14.9285 24.6571 15.8552 24.6663C16.7819 24.6754 17.6237 23.6994 19.3076 21.7477Z" stroke="#0B0218" stroke-width="2"/>
</svg>
