<svg width="20" height="20" viewBox="0 0 20 20" fill="none" xmlns="http://www.w3.org/2000/svg">
<path d="M8.33325 11.0248C8.45125 11.2181 8.59134 11.401 8.75342 11.5697C9.75967 12.6169 11.2934 12.7807 12.4646 12.0608C12.6816 11.9274 12.8861 11.7637 13.0726 11.5697L15.7721 8.76015C16.9648 7.51885 16.9648 5.50629 15.7721 4.26497C14.5793 3.02365 12.6456 3.02366 11.4528 4.26497L10.8583 4.8838" stroke="#430B92" stroke-width="1.5" stroke-linecap="round"/>
<path d="M9.14184 15.1167L8.547 15.7357C7.3543 16.977 5.42051 16.977 4.2278 15.7357C3.03507 14.4943 3.03507 12.4818 4.2278 11.2405L6.92731 8.431C8.12003 7.18967 10.0538 7.18966 11.2465 8.431C11.4086 8.59958 11.5486 8.7825 11.6666 8.97566" stroke="#430B92" stroke-width="1.5" stroke-linecap="round"/>
</svg>
