<svg width="20" height="20" viewBox="0 0 20 20" fill="none" xmlns="http://www.w3.org/2000/svg">
<path d="M17.3115 15C17.936 15 18.4326 14.6071 18.8785 14.0576C19.7915 12.9328 18.2926 12.034 17.721 11.5938C17.1399 11.1463 16.491 10.8928 15.8332 10.8333M14.9999 9.16667C16.1505 9.16667 17.0832 8.23392 17.0832 7.08333C17.0832 5.93274 16.1505 5 14.9999 5" stroke="#0B0218" stroke-width="1.1" stroke-linecap="round"/>
<path d="M2.68822 15C2.0638 15 1.56715 14.6071 1.1212 14.0576C0.208328 12.9328 1.70715 12.034 2.27879 11.5938C2.8599 11.1463 3.50874 10.8928 4.16659 10.8333M4.58325 9.16667C3.43266 9.16667 2.49992 8.23392 2.49992 7.08333C2.49992 5.93274 3.43266 5 4.58325 5" stroke="#0B0218" stroke-width="1.1" stroke-linecap="round"/>
<path d="M6.73642 12.593C5.88494 13.1195 3.6524 14.1946 5.01217 15.5398C5.6764 16.197 6.41619 16.667 7.34627 16.667H12.6536C13.5837 16.667 14.3234 16.197 14.9877 15.5398C16.3474 14.1946 14.1149 13.1195 13.2634 12.593C11.2667 11.3583 8.7331 11.3583 6.73642 12.593Z" stroke="#0B0218" stroke-width="1.1" stroke-linecap="round" stroke-linejoin="round"/>
<path d="M12.9166 6.24967C12.9166 7.86051 11.6108 9.16634 9.99994 9.16634C8.3891 9.16634 7.08325 7.86051 7.08325 6.24967C7.08325 4.63884 8.3891 3.33301 9.99994 3.33301C11.6108 3.33301 12.9166 4.63884 12.9166 6.24967Z" stroke="#0B0218" stroke-width="1.1"/>
</svg>
