<svg width="17" height="13" viewBox="0 0 17 13" fill="none" xmlns="http://www.w3.org/2000/svg">
<path fill-rule="evenodd" clip-rule="evenodd" d="M8.42854 3.14629C10.8017 3.14639 13.0842 4.02624 14.8041 5.60399C14.9337 5.7258 15.1407 5.72426 15.2682 5.60054L16.5063 4.39495C16.5709 4.3322 16.6069 4.2472 16.6064 4.15877C16.6058 4.07033 16.5688 3.98574 16.5034 3.92373C11.9891 -0.250618 4.86725 -0.250618 0.352924 3.92373C0.287531 3.9857 0.250427 4.07026 0.249824 4.15869C0.249221 4.24713 0.285168 4.33215 0.349711 4.39495L1.58813 5.60054C1.71561 5.72445 1.92279 5.72598 2.05223 5.60399C3.7724 4.02614 6.05511 3.14629 8.42854 3.14629ZM8.42534 7.17327C9.72049 7.17319 10.9694 7.66149 11.9295 8.54329C12.0593 8.66844 12.2639 8.66573 12.3904 8.53718L13.6188 7.2783C13.6834 7.21227 13.7193 7.12269 13.7184 7.02961C13.7175 6.93652 13.6798 6.8477 13.6138 6.78302C10.6903 4.02458 6.16287 4.02458 3.23937 6.78302C3.17333 6.8477 3.13565 6.93657 3.13478 7.02968C3.13392 7.12279 3.16993 7.21236 3.23476 7.2783L4.46272 8.53718C4.5893 8.66573 4.79385 8.66844 4.9237 8.54329C5.8831 7.66208 7.13104 7.17382 8.42534 7.17327ZM10.8341 9.83887C10.836 9.9394 10.8006 10.0363 10.7364 10.1067L8.65943 12.449C8.59854 12.5179 8.51553 12.5566 8.42892 12.5566C8.34231 12.5566 8.2593 12.5179 8.19842 12.449L6.1211 10.1067C6.05693 10.0363 6.02163 9.93932 6.02353 9.83879C6.02543 9.73827 6.06437 9.64307 6.13115 9.57569C7.45758 8.32198 9.40026 8.32198 10.7267 9.57569C10.7934 9.64313 10.8323 9.73835 10.8341 9.83887Z" fill="#0B0218"/>
</svg>
