<svg width="17" height="13" viewBox="0 0 17 13" fill="none" xmlns="http://www.w3.org/2000/svg">
<path fill-rule="evenodd" clip-rule="evenodd" d="M8.4286 3.14629C10.8018 3.14639 13.0842 4.02624 14.8042 5.60399C14.9337 5.7258 15.1407 5.72426 15.2683 5.60054L16.5064 4.39495C16.5709 4.3322 16.607 4.2472 16.6064 4.15877C16.6059 4.07033 16.5688 3.98574 16.5035 3.92373C11.9892 -0.250618 4.86731 -0.250618 0.352985 3.92373C0.287592 3.9857 0.250488 4.07026 0.249885 4.15869C0.249282 4.24713 0.285229 4.33215 0.349772 4.39495L1.58819 5.60054C1.71567 5.72445 1.92285 5.72598 2.05229 5.60399C3.77246 4.02614 6.05517 3.14629 8.4286 3.14629ZM8.4254 7.17327C9.72055 7.17319 10.9695 7.66149 11.9295 8.54329C12.0594 8.66844 12.2639 8.66573 12.3905 8.53718L13.6188 7.2783C13.6835 7.21227 13.7194 7.12269 13.7185 7.02961C13.7175 6.93652 13.6799 6.8477 13.6139 6.78302C10.6904 4.02458 6.16293 4.02458 3.23943 6.78302C3.17339 6.8477 3.13571 6.93657 3.13485 7.02968C3.13398 7.12279 3.17 7.21236 3.23482 7.2783L4.46278 8.53718C4.58936 8.66573 4.79391 8.66844 4.92376 8.54329C5.88316 7.66208 7.1311 7.17382 8.4254 7.17327ZM10.8342 9.83887C10.836 9.9394 10.8007 10.0363 10.7365 10.1067L8.65949 12.449C8.5986 12.5179 8.51559 12.5566 8.42898 12.5566C8.34237 12.5566 8.25936 12.5179 8.19848 12.449L6.12116 10.1067C6.05699 10.0363 6.02169 9.93932 6.02359 9.83879C6.02549 9.73827 6.06443 9.64307 6.13121 9.57569C7.45764 8.32198 9.40032 8.32198 10.7268 9.57569C10.7935 9.64313 10.8324 9.73835 10.8342 9.83887Z" fill="black"/>
</svg>
