<svg width="17" height="13" viewBox="0 0 17 13" fill="none" xmlns="http://www.w3.org/2000/svg">
<path fill-rule="evenodd" clip-rule="evenodd" d="M8.42848 3.14629C10.8017 3.14639 13.0841 4.02624 14.8041 5.60399C14.9336 5.7258 15.1406 5.72426 15.2682 5.60054L16.5062 4.39495C16.5708 4.3322 16.6068 4.2472 16.6063 4.15877C16.6058 4.07033 16.5687 3.98574 16.5034 3.92373C11.9891 -0.250618 4.86719 -0.250618 0.352863 3.92373C0.28747 3.9857 0.250366 4.07026 0.249763 4.15869C0.24916 4.24713 0.285107 4.33215 0.34965 4.39495L1.58807 5.60054C1.71555 5.72445 1.92273 5.72598 2.05217 5.60399C3.77234 4.02614 6.05505 3.14629 8.42848 3.14629ZM8.42528 7.17327C9.72043 7.17319 10.9694 7.66149 11.9294 8.54329C12.0592 8.66844 12.2638 8.66573 12.3904 8.53718L13.6187 7.2783C13.6834 7.21227 13.7193 7.12269 13.7183 7.02961C13.7174 6.93652 13.6797 6.8477 13.6137 6.78302C10.6902 4.02458 6.16281 4.02458 3.23931 6.78302C3.17327 6.8477 3.13559 6.93657 3.13472 7.02968C3.13386 7.12279 3.16987 7.21236 3.2347 7.2783L4.46266 8.53718C4.58924 8.66573 4.79379 8.66844 4.92364 8.54329C5.88304 7.66208 7.13098 7.17382 8.42528 7.17327ZM10.8341 9.83887C10.8359 9.9394 10.8006 10.0363 10.7363 10.1067L8.65937 12.449C8.59848 12.5179 8.51547 12.5566 8.42886 12.5566C8.34225 12.5566 8.25924 12.5179 8.19836 12.449L6.12104 10.1067C6.05687 10.0363 6.02157 9.93932 6.02347 9.83879C6.02537 9.73827 6.06431 9.64307 6.13109 9.57569C7.45752 8.32198 9.4002 8.32198 10.7266 9.57569C10.7934 9.64313 10.8322 9.73835 10.8341 9.83887Z" fill="#0B0218"/>
</svg>
